<svg width="100" height="100" viewBox="0 0 100 100" fill="none" xmlns="http://www.w3.org/2000/svg">
<path d="M54.2178 11.0199C54.2178 11.0199 45.0251 3.6771 42.8696 8.8394C40.7141 14.0017 46.786 45.5727 46.786 45.5727C46.786 45.5727 28.9432 16.2909 23.339 15.0509C17.9361 13.8554 17.2508 23.7416 17.2508 23.7416C17.2508 23.7416 6.25015 27.8949 9.57101 32.3937C12.8919 36.8926 44.5596 48.5118 44.5596 48.5118C44.5596 48.5118 11.6467 45.2587 7.28476 48.9967C3.07956 52.6004 10.5438 59.1005 10.5438 59.1005C10.5438 59.1005 7.23023 70.4037 12.8139 70.4548C18.3976 70.5059 46.2372 52.9386 46.2372 52.9386C46.2372 52.9386 21.8652 76.1535 21.7639 81.9043C21.6662 87.4484 31.471 86.1608 31.471 86.1608C31.471 86.1608 37.7148 96.1425 41.4561 91.9883C45.1974 87.8341 49.8263 55.0697 49.8263 55.0697C49.8263 55.0697 52.9796 88.5916 57.5358 92.0891C61.9282 95.461 66.7185 86.7913 66.7185 86.7913C66.7185 86.7913 78.4399 87.6865 77.3275 82.2026C76.215 76.7188 53.8837 54.0899 53.8837 54.0899C53.8837 54.0899 80.1298 72.2637 85.7636 71.1659C91.1949 70.1075 87.8972 60.7648 87.8972 60.7648C87.8972 60.7648 96.3395 52.5667 91.5063 49.7642C88.3862 47.955 66.8581 50.2625 56.8211 50.3166C66.664 47.2164 89.0071 39.3225 90.9078 35.9288C93.616 31.0935 84.3735 27.5698 84.3735 27.5698C84.3735 27.5698 83.5968 15.8147 78.3376 17.6954C73.0785 19.5761 52.5534 46.0042 52.5534 46.0042C52.5534 46.0042 66.5909 17.2698 64.7841 11.8106C63.0422 6.54754 54.2178 11.0199 54.2178 11.0199Z" fill="#EDA710"/>
<path d="M47.2414 53.9183C45.0722 57.8496 31.5198 82.1183 29.5 78.4994C26.7043 73.4902 46.3181 52.7403 46.3181 52.7403C46.3181 52.7403 22.1546 65.9623 21 62.9994C19.2778 58.5796 29.2462 54.8445 37.1937 52.6205C28.9309 54.4241 18.1352 56.2692 18.5 53.4994C19.2715 47.6422 46.5826 48.5723 46.5826 48.5723C46.5826 48.5723 23.4688 40.9818 21 36.0002C16.7925 27.5097 46.9274 47.1887 46.9274 47.1887C46.9274 47.1887 23.8399 31.5173 27 28.5002C31.2221 24.4693 47.8802 46.1278 47.8802 46.1278C47.8802 46.1278 42.086 19.8098 48.8917 17.9994C51.1151 17.408 51.8367 21.2289 51.8729 26.2195C53.0118 21.5548 54.8846 18.2418 57.9605 19.5002C60.7581 20.6448 52.035 46.3749 52.035 46.3749C52.035 46.3749 69.1499 25.1423 74 28.5003C75.9706 29.8647 73.0778 33.3552 68.9482 37.0189C73.4548 34.5421 77.681 33.4547 79.4063 36.5642C81.806 40.8892 55.5 49.3895 55.5 49.3895C55.5 49.3895 83 50 82.5 54.9994C82.1888 58.1108 71.7293 55.8935 63.8732 53.775C71.7964 56.3921 82.0555 60.628 80 64.5C77.9152 68.4272 54.2483 53.2152 54.2483 53.2152C54.2483 53.2152 77.1536 81.9052 70 78.4994C66.4611 76.8145 62.1409 70.9229 58.6784 65.399C62.7038 73.2968 66.3822 82.7222 61.5 83.5C54.6899 84.5849 49.5 54.4982 49.5 54.4982C49.5 54.4982 46.8172 78.7253 39.5 81.4994C30.6166 84.8673 44.9806 58.0596 47.2414 53.9183Z" fill="#FFD95B"/>
<path d="M51.0127 50.0282C51.0126 50.0281 51.0125 50.0281 50.9503 51.0262L51.0125 50.0281L50.5278 51.9326L50.6248 51.7245C50.5278 51.9326 50.5279 51.9326 50.5279 51.9326L50.5287 51.933L50.5322 51.9346L50.5472 51.9417L50.5788 51.9565L49.9227 52.316L50.7827 52.0531L49.9227 52.3161L49.923 52.3168L49.924 52.3203L49.9285 52.335L49.9467 52.3954C49.9629 52.4492 49.9869 52.5297 50.018 52.6352C50.0803 52.8462 50.1708 53.157 50.283 53.5537C50.5074 54.3472 50.8182 55.4832 51.163 56.8496C51.8535 59.5856 52.6761 63.2304 53.2143 66.8909C53.7556 70.5726 53.9952 74.1821 53.5694 76.8846C53.3565 78.2363 52.9899 79.2726 52.4863 79.9722C52.0091 80.6351 51.4011 81.0136 50.5691 81.0884C49.7489 81.162 49.1729 80.898 48.7045 80.3636C48.1921 79.7791 47.7773 78.8268 47.4951 77.5037C46.9324 74.8653 46.9835 71.1895 47.3323 67.3826C47.6789 63.5997 48.3097 59.7815 48.8558 56.9024C49.1285 55.4646 49.3794 54.2646 49.5618 53.4251C49.6531 53.0054 49.7272 52.6759 49.7783 52.452C49.8039 52.3401 49.8237 52.2546 49.837 52.1974L49.8521 52.1331L49.8558 52.1173L49.8567 52.1136L49.8569 52.1128C49.8569 52.1127 49.8569 52.1127 49.4572 52.0175L49.8569 52.1127L49.2799 51.8299L49.2855 51.8278L49.2989 51.8228L49.3021 51.8217L49.3027 51.8214L48.9554 50.8837L49.3028 51.8214L49.0463 50.1977L49.8723 49.3527L49.0266 49.8863C49.8723 49.3527 49.8723 49.3527 49.8722 49.3525L49.8716 49.3516L49.8691 49.3477L49.8589 49.3315L49.818 49.2663C49.7818 49.2085 49.728 49.1224 49.6579 49.0099C49.5179 48.7849 49.3133 48.4545 49.0558 48.0341C48.5408 47.1932 47.8146 45.9929 46.9712 44.5575C45.283 41.6841 43.1314 37.879 41.2643 34.132C39.3843 30.3592 37.839 26.735 37.3051 24.1939C37.0288 22.8786 37.079 22.0926 37.2558 21.7233C37.3212 21.5865 37.3922 21.5291 37.4881 21.4919C37.6126 21.4437 37.8649 21.401 38.3217 21.4838C40.1274 21.8111 41.8339 23.4521 43.3862 26.1445C44.9112 28.7895 46.149 32.2104 47.1216 35.6382C48.0912 39.0556 48.7832 42.4295 49.2331 44.9533C49.4578 46.2139 49.6216 47.2596 49.729 47.9888C49.7827 48.3533 49.8223 48.6386 49.8484 48.832C49.8614 48.9286 49.8711 49.0023 49.8774 49.0514L49.8845 49.1064L49.8862 49.1197L49.8865 49.1227L49.8866 49.1233L49.8867 49.1233L51.7886 49.1831L51.7797 49.1928L51.7683 49.2052L51.7657 49.2081L51.7651 49.2087C51.765 49.2088 51.765 49.2088 51.9876 49.4141L51.765 49.2088L52.3451 50.0988C51.9527 50.0801 51.6384 50.0636 51.4138 50.0512C51.282 50.044 51.1811 50.0382 51.1135 50.0342L51.0372 50.0297L51.0183 50.0285L51.0138 50.0282L51.0127 50.0282ZM54.7497 50.197C55.4514 49.9702 56.3197 49.6938 57.3125 49.3869C60.0267 48.5477 63.6639 47.4816 67.3681 46.5696C71.0831 45.6549 74.821 44.9064 77.7517 44.6853C79.2233 44.5742 80.4287 44.6016 81.3037 44.7778C82.2198 44.9623 82.5135 45.2529 82.5957 45.4269C82.7779 45.813 82.8126 46.1017 82.7871 46.3183C82.7619 46.5316 82.6692 46.7534 82.4644 46.9945C82.0234 47.5135 81.1356 48.034 79.7515 48.4945C77.0192 49.4034 72.9424 49.8933 68.6403 50.1272C64.3632 50.3597 59.9561 50.3353 56.6121 50.2522C55.9453 50.2356 55.3214 50.2167 54.7497 50.197ZM55.0691 55.2756C54.4057 54.5364 53.816 53.8712 53.3206 53.3081C53.8389 53.572 54.415 53.8696 55.0363 54.1971C57.7197 55.6113 61.2347 57.5762 64.5844 59.7884C67.95 62.0111 71.081 64.4397 73.0493 66.7703C75.0729 69.1664 75.5454 71.0394 74.6518 72.4703C74.6227 72.5169 74.6089 72.5262 74.5555 72.537C74.4621 72.5558 74.2611 72.5578 73.9113 72.4526C73.2063 72.2404 72.2314 71.6973 71.0326 70.837C68.6608 69.1348 65.72 66.4188 62.828 63.5186C59.9456 60.6281 57.1481 57.5919 55.0691 55.2756ZM44.7325 48.6276C45.5337 49.0557 46.2361 49.4428 46.8112 49.7654C46.0221 49.7162 45.0516 49.65 43.9533 49.5635C40.9466 49.3268 36.9955 48.9392 33.1927 48.3355C29.3644 47.7278 25.7812 46.9149 23.4562 45.8597C22.2751 45.3236 21.5714 44.791 21.2611 44.3227C21.1204 44.1103 21.0734 43.9309 21.0761 43.7669C21.0788 43.5972 21.1363 43.3599 21.3412 43.0412C22.1258 41.8211 23.8975 41.3291 26.7357 41.6866C29.4878 42.0333 32.8144 43.1351 36.0721 44.486C39.3154 45.8309 42.4271 47.3959 44.7325 48.6276ZM46.8295 52.797C46.2463 53.4913 45.4863 54.3834 44.5976 55.3979C42.4712 57.8253 39.619 60.9406 36.6968 63.718C33.7479 66.5208 30.8217 68.8871 28.5389 69.916C27.3827 70.4371 26.5839 70.5256 26.0851 70.3725C25.6868 70.2504 25.2383 69.8938 24.9734 68.7703C24.6301 67.3145 25.5396 65.5219 27.7669 63.4615C29.9246 61.4656 33.0178 59.503 36.2327 57.7618C39.4354 56.0271 42.7046 54.5409 45.1777 53.487C45.7804 53.2302 46.3352 52.9993 46.8295 52.797ZM52.0089 48.941C51.9592 48.9959 51.9167 49.0428 51.8818 49.0812C51.8932 49.0219 51.9096 48.938 51.9308 48.8312C51.9772 48.5976 52.0466 48.2544 52.1382 47.8184C52.3216 46.9462 52.5938 45.7036 52.9484 44.226C53.6586 41.2673 54.696 37.3814 56.0081 33.6443C57.3281 29.8849 58.8954 26.3675 60.6359 24.0833C61.5066 22.9406 62.3612 22.1868 63.1731 21.8253C63.9359 21.4856 64.7024 21.4698 65.5528 21.895C66.4023 22.3197 66.8461 22.9408 67.0282 23.7525C67.2221 24.6176 67.1263 25.7527 66.7268 27.1347C65.9284 29.8971 64.0336 33.2606 61.7964 36.5712C59.5725 39.8622 57.0646 43.0225 55.1076 45.365C54.1302 46.535 53.2927 47.4979 52.7002 48.1677C52.404 48.5025 52.1692 48.7639 52.0089 48.941Z" stroke="white" stroke-width="2"/>
</svg>
