<svg width="104" height="108" viewBox="0 0 104 108" fill="none" xmlns="http://www.w3.org/2000/svg">
<g filter="url(#filter0_d_301_499)">
<path d="M29.5057 63.5903C32.8718 62.7966 36.1947 61.71 39.0515 60.6536C37.1661 62.4505 35.1203 64.5308 33.2251 66.7293C30.3901 70.0178 27.7767 73.7009 26.6278 77.1765C26.0484 78.9295 25.8065 80.7327 26.1886 82.4485C26.5795 84.2038 27.5939 85.7293 29.2686 86.9254C30.9344 88.1151 32.6756 88.5792 34.4187 88.3248C36.1177 88.0769 37.6356 87.1732 38.9579 85.9784C41.5752 83.6136 43.8041 79.7621 45.5978 75.8576C46.2463 74.446 46.8481 73.0044 47.3991 71.5891C47.2984 74.0648 47.2739 76.6238 47.3932 79.0628C47.5827 82.9383 48.1407 86.7252 49.4665 89.4256C50.1382 90.7939 51.0619 91.9972 52.3463 92.7416C53.6661 93.5065 55.2009 93.6907 56.8769 93.303L56.9958 93.2755L57.1086 93.2291C61.4263 91.456 63.4896 88.032 64.1389 84.1041C64.7735 80.2656 64.0796 75.8997 62.9601 71.8941C62.6975 70.9547 62.4092 70.0272 62.1049 69.1217C63.0683 70.2582 64.0872 71.4027 65.1438 72.5104C68.2314 75.7476 71.7557 78.7947 75.2436 80.3323C77.0023 81.1076 78.8419 81.5397 80.6591 81.3411C82.5122 81.1386 84.2163 80.2929 85.6746 78.7371L85.7676 78.6379L85.8413 78.5235C87.0152 76.7006 87.4526 74.8099 87.2509 72.925C87.0523 71.0703 86.2477 69.3293 85.1207 67.739C82.8861 64.586 79.1856 61.7495 75.3932 59.3977C73.0696 57.9567 70.6583 56.6657 68.4302 55.5675C70.6656 55.7138 73.1108 55.7978 75.582 55.7472C79.9377 55.658 84.4992 55.1492 88.1515 53.7453C91.8154 52.337 94.8572 49.8941 95.4826 45.8212L95.5232 45.5567L95.4699 45.2945C94.9967 42.9687 93.9663 41.1542 92.464 39.8379C90.9766 38.5348 89.1268 37.8071 87.145 37.4664C83.2291 36.7934 78.5056 37.5823 74.09 38.8237C71.256 39.6206 68.4739 40.626 66.0009 41.6245C67.9109 39.7762 69.9641 37.6657 71.874 35.4533C74.853 32.0023 77.5995 28.1727 78.8244 24.6274C79.4411 22.8425 79.7152 21.0086 79.3296 19.281C78.9327 17.5026 77.8708 15.9943 76.1229 14.8644C74.4495 13.7828 72.7216 13.4275 71.0203 13.7685C69.3668 14.0999 67.9037 15.0552 66.6349 16.2821C64.1196 18.7142 62.004 22.5708 60.3125 26.4626C59.2891 28.8172 58.395 31.247 57.645 33.4929C57.4742 30.847 57.1929 27.9009 56.7343 24.9653C56.0229 20.412 54.865 15.7454 52.9416 12.2637C51.0108 8.76831 48.081 6.12167 43.8411 6.54348C41.814 6.74515 40.2612 7.66049 39.2381 9.15606C38.2613 10.5839 37.8573 12.4074 37.7695 14.3182C37.5943 18.1338 38.6579 22.9457 40.0689 27.5434C40.889 30.2157 41.8437 32.869 42.7862 35.2904C41.5261 33.8754 40.1511 32.4212 38.7062 31.0325C35.5879 28.0355 32.0302 25.2314 28.5132 23.8566C26.74 23.1634 24.8997 22.8026 23.092 23.0279C21.2548 23.2568 19.5523 24.0798 18.0818 25.5804L17.9044 25.7613L17.7963 25.9905C16.1199 29.5459 17.3141 33.1365 19.5105 36.2228C21.7093 39.3125 25.1113 42.2099 28.5693 44.6707C30.2229 45.8475 31.9122 46.9403 33.5257 47.9221C31.6459 47.6108 29.6394 47.3393 27.6164 47.1648C23.4416 46.8049 19.0467 46.8438 15.5312 47.9003C11.9612 48.9733 9.01941 51.2121 8.51133 55.3232L8.49042 55.4923L8.508 55.6619C8.76198 58.1108 9.62106 60.0718 11.0188 61.5442C12.4054 63.0049 14.2169 63.8743 16.1948 64.3389C20.0948 65.2551 24.9403 64.6668 29.5057 63.5903Z" fill="#F3CF3C" stroke="#FFE9A0" stroke-width="3"/>
<path d="M56.5694 48.9964C56.5694 48.9964 80.6617 43.2306 79.6088 55.045C78.5558 66.8594 54.9115 52.2675 56.0756 52.4102C57.2396 52.5528 73.8212 61.7476 65.9762 74.2884C58.1313 86.8291 53.4668 54.6662 53.4668 54.6662C53.4668 54.6662 54.9323 79.0102 47.205 77.8315C39.4778 76.6529 50.0604 54.8441 50.0604 54.8441C50.0604 54.8441 42.1718 70.7706 31.0024 68.5773C19.833 66.3839 47.7734 52.8173 47.7734 52.8173C47.7734 52.8173 24.6015 61.4938 23.2755 49.6131C21.9494 37.7324 48.8171 49.6035 48.8171 49.6035C48.8171 49.6035 27.7687 42.3617 32.5274 32.2431C37.286 22.1244 49.735 46.7769 49.735 46.7769C49.735 46.7769 40.5807 22.7877 50.3619 24.038C60.143 25.2883 52.9873 46.8827 52.9873 46.8827C52.9873 46.8827 65.5588 18.5505 72.8102 28.4603C80.0615 38.3701 56.5694 48.9964 56.5694 48.9964Z" fill="#EDA710"/>
</g>
<defs>
<filter id="filter0_d_301_499" x="-4" y="0" width="112" height="113" filterUnits="userSpaceOnUse" color-interpolation-filters="sRGB">
<feFlood flood-opacity="0" result="BackgroundImageFix"/>
<feColorMatrix in="SourceAlpha" type="matrix" values="0 0 0 0 0 0 0 0 0 0 0 0 0 0 0 0 0 0 127 0" result="hardAlpha"/>
<feOffset dy="7"/>
<feGaussianBlur stdDeviation="3"/>
<feComposite in2="hardAlpha" operator="out"/>
<feColorMatrix type="matrix" values="0 0 0 0 0 0 0 0 0 0 0 0 0 0 0 0 0 0 0.25 0"/>
<feBlend mode="normal" in2="BackgroundImageFix" result="effect1_dropShadow_301_499"/>
<feBlend mode="normal" in="SourceGraphic" in2="effect1_dropShadow_301_499" result="shape"/>
</filter>
</defs>
</svg>
