<svg width="100" height="100" viewBox="0 0 100 100" fill="none" xmlns="http://www.w3.org/2000/svg">
<path d="M63.0065 52.2856C67.6839 50.9448 73.7106 49.0305 79.2684 46.6953C84.8577 44.3469 90.2208 41.4745 93.1491 38.1754C94.6349 36.5015 95.6409 34.5514 95.5176 32.3864C95.3936 30.2091 94.1502 28.1954 91.9673 26.3536C88.9636 23.8192 84.8275 24.214 80.8895 25.6181C76.8748 27.0495 72.5353 29.7067 68.5852 32.5456C64.7063 35.3334 61.1235 38.3549 58.4791 40.7097C58.5579 40.4722 58.6379 40.2292 58.7189 39.9809C59.9988 36.0586 61.5352 30.8042 62.536 25.5296C63.5282 20.3009 64.033 14.8632 63.1092 10.6622C62.6435 8.54398 61.7873 6.61195 60.3225 5.20234C58.8251 3.76147 56.8303 2.99998 54.3746 3C49.8271 3.00003 47.1561 6.28606 45.6726 10.3452C44.1885 14.4058 43.6829 19.7006 43.6297 24.8367C43.5762 30.0053 43.9812 35.157 44.3968 39.0054C44.418 39.2016 44.4393 39.3944 44.4605 39.5838C44.3897 39.493 44.318 39.4014 44.2455 39.3089C41.9483 36.3816 38.7409 32.602 35.1334 29.2529C31.555 25.9307 27.4484 22.9038 23.3458 21.659C21.2712 21.0296 19.1376 20.8375 17.0577 21.3491C14.9629 21.8643 13.0403 23.0648 11.3611 25.0238C9.91159 26.7149 9.33737 28.5796 9.60824 30.5033C9.86885 32.3542 10.8857 34.0751 12.236 35.6235C14.9271 38.7092 19.37 41.5885 23.9385 44.0287C28.5461 46.4898 33.4422 48.5869 37.1738 50.0654C37.6947 50.2718 38.1935 50.4663 38.6661 50.6483C38.2822 50.7406 37.8816 50.8385 37.4663 50.9417C33.7697 51.8604 28.88 53.213 24.1512 54.9427C19.4555 56.6602 14.7805 58.7979 11.6099 61.3332C10.0228 62.6022 8.70424 64.0553 8.00531 65.7111C7.27957 67.4304 7.26272 69.2808 8.14442 71.1421C9.37816 73.7467 11.0339 75.5687 13.0555 76.6437C15.0713 77.7156 17.307 77.9684 19.572 77.6926C24.0324 77.1494 28.8787 74.5235 33.2387 71.4529C37.6411 68.3524 41.7356 64.662 44.7176 61.7623C44.9369 61.549 45.1504 61.3399 45.3576 61.1354C45.3562 61.1407 45.3549 61.146 45.3535 61.1512C44.4299 64.6841 43.3646 69.4218 42.8222 74.1816C42.2848 78.8976 42.2362 83.826 43.489 87.6403C44.1226 89.5693 45.1179 91.3027 46.6368 92.5547C48.1765 93.8238 50.1358 94.4998 52.5 94.4998C54.8627 94.4998 56.8051 93.8239 58.2991 92.5318C59.7714 91.2584 60.6758 89.5016 61.2015 87.5652C62.2399 83.74 61.9085 78.8085 61.1034 74.0986C60.3142 69.4819 59.0339 64.886 57.9314 61.3913C60.456 63.7871 63.7987 66.7615 67.3763 69.3989C71.1329 72.1681 75.2815 74.6668 79.0854 75.6479C81.0011 76.142 82.9332 76.2789 84.7217 75.7802C86.5503 75.2704 88.1046 74.1295 89.2655 72.3052C90.7082 70.0381 91.3142 67.8554 91.0585 65.7839C90.8027 63.7116 89.7128 61.9785 88.2047 60.5568C85.2532 57.7744 80.4031 55.9028 75.5073 54.6119C71.2354 53.4856 66.7342 52.7539 63.0065 52.2856Z" fill="white" stroke="white" stroke-width="3"/>
<path d="M49.9799 62.0194C50.4021 61.2522 50.779 60.56 51.0983 59.9697C51.4185 60.4103 51.7851 60.9126 52.1899 61.4633C53.7069 63.527 55.7635 66.2755 57.9161 69.0059C60.0628 71.729 62.3288 74.4648 64.2605 76.4874C65.2211 77.4932 66.1395 78.3659 66.946 78.9754C67.3469 79.2783 67.7687 79.5537 68.1911 79.7424C68.5771 79.9148 69.1788 80.1136 69.8376 79.9614C70.2235 79.8722 70.6044 79.662 70.8899 79.3032C71.1597 78.964 71.2643 78.5931 71.3014 78.3015C71.3703 77.7618 71.2431 77.2186 71.1142 76.8043C70.8407 75.9253 70.292 74.8218 69.6228 73.6407C68.2639 71.2423 66.1896 68.1489 64.0533 65.1197C61.9098 62.0802 59.6759 59.066 57.9798 56.8141C57.6373 56.3593 57.3165 55.9354 57.0227 55.5484C57.442 55.5556 57.8955 55.5628 58.3781 55.5695C61.0729 55.6074 64.6816 55.6328 68.3282 55.5827C71.9667 55.5328 75.6759 55.4074 78.5592 55.1393C79.9934 55.0059 81.2763 54.8327 82.2604 54.601C82.7477 54.4863 83.2229 54.3434 83.6259 54.1543C83.96 53.9974 84.5649 53.666 84.8659 53.0026C85.1525 52.3711 85.2846 51.6375 85.0532 50.8919C84.8248 50.1564 84.3158 49.6456 83.7916 49.3037C82.8074 48.6618 81.3894 48.3651 79.9453 48.2128C76.9628 47.8982 72.8019 48.1112 68.669 48.509C64.5065 48.9097 60.2628 49.5096 57.0663 50.0079C56.5027 50.0958 55.9712 50.1806 55.478 50.2606C56.0465 49.5111 56.6974 48.6486 57.4057 47.7023C59.8815 44.3949 63.0665 40.055 65.8862 35.9464C68.6767 31.8804 71.2002 27.9125 72.2664 25.3995C72.5335 24.7701 72.7533 24.1327 72.8336 23.5565C72.8978 23.0958 72.9593 22.0461 72.0854 21.3744C71.2549 20.736 70.2651 20.9869 69.7725 21.1544C69.1612 21.3622 68.4614 21.7407 67.688 22.2386C66.2874 23.1404 64.4189 25.1632 62.5081 27.4676C60.5465 29.8333 58.3892 32.686 56.3916 35.4266C54.3917 38.1704 52.541 40.8171 51.1909 42.7768C50.9772 43.087 50.776 43.38 50.5886 43.6536C50.375 43.1164 50.1332 42.5122 49.8679 41.8548C48.7936 39.1925 47.3302 35.6498 45.7779 32.1389C44.23 28.6382 42.5762 25.1289 41.1215 22.5524C40.4005 21.2755 39.6899 20.1578 39.0323 19.3787C38.7101 18.9968 38.3328 18.6137 37.9076 18.3472C37.5013 18.0926 36.7563 17.7708 35.9267 18.1139C35.2202 18.4061 34.8093 18.9738 34.598 19.5301C34.3987 20.0548 34.3492 20.6268 34.3576 21.1518C34.3745 22.207 34.6378 23.5009 35.0179 24.8694C35.7864 27.6367 37.1534 31.1235 38.6086 34.5006C40.0699 37.8919 41.6451 41.2292 42.853 43.715C43.1877 44.4038 43.4946 45.028 43.7634 45.5705C43.1268 45.5492 42.3899 45.5267 41.5746 45.5053C38.7332 45.4308 34.9309 45.3705 31.102 45.4282C27.2856 45.4856 23.3914 45.6608 20.3865 46.0675C18.895 46.2693 17.5413 46.5383 16.505 46.9123C15.9896 47.0983 15.4749 47.3373 15.0484 47.6615C14.6246 47.9837 14.1566 48.4936 14.0236 49.2345C13.8697 50.0916 14.2993 50.7425 14.689 51.1105C15.057 51.4582 15.522 51.6978 15.9413 51.8723C16.8014 52.2303 17.9693 52.5138 19.2573 52.7495C21.8648 53.2266 25.3463 53.573 28.7894 53.8245C32.2453 54.0769 35.7126 54.2371 38.3125 54.3341C39.1609 54.3658 39.9177 54.3907 40.5526 54.41C40.3604 54.9323 40.137 55.5433 39.8905 56.2247C39.062 58.5148 37.97 61.6056 36.9189 64.8013C35.8698 67.9908 34.8526 71.312 34.1805 74.0543C33.8452 75.4221 33.587 76.6814 33.4578 77.7254C33.3932 78.247 33.3569 78.7456 33.3662 79.1946C33.3751 79.6188 33.4257 80.1182 33.6139 80.5731C33.8508 81.1461 34.3577 81.7765 35.2367 81.9097C35.9659 82.0202 36.5883 81.7172 36.965 81.4842C37.7528 80.9971 38.5841 80.1027 39.3771 79.1197C41.0176 77.0863 42.9969 74.0245 44.8826 70.9011C46.7786 67.7609 48.6172 64.4956 49.9799 62.0194Z" fill="#F2A72A" stroke="#FFCF30" stroke-width="3"/>
<path d="M56.5 60.4996L57.0056 59.6368L55.0495 58.4906L55.522 60.708L56.5 60.4996ZM56.5 60.4996C57.0056 59.6368 57.0056 59.6368 57.0057 59.6369L57.0063 59.6373L57.0092 59.6389L57.0213 59.646L57.0703 59.6745C57.1138 59.6999 57.1789 59.7376 57.2642 59.7869C57.4348 59.8853 57.6861 60.0295 58.0072 60.2117C58.6496 60.576 59.5711 61.0918 60.685 61.6961C62.9148 62.9058 65.9077 64.4659 68.973 65.8758C72.0508 67.2915 75.1513 68.5322 77.6105 69.1294C78.8477 69.4299 79.8474 69.5482 80.57 69.4833C81.2971 69.4181 81.5291 69.1963 81.6162 69.0317C82.4574 67.4429 82.0036 65.7391 80.3598 63.8322C78.7154 61.9247 76.0698 60.0707 73.1924 58.4309C70.3334 56.8016 67.3261 55.4283 65.0262 54.4604C63.878 53.9771 62.9101 53.5965 62.2304 53.3372C61.8907 53.2076 61.6232 53.1083 61.4414 53.0418C61.3506 53.0085 61.2811 52.9834 61.2349 52.9668L61.183 52.9482L61.1705 52.9438L61.1677 52.9428L61.1672 52.9426L61.1672 52.9426L58.4414 51.9805L61.179 51.0525L61.5 51.9996L61.179 51.0525L61.1798 51.0523L61.1833 51.0511L61.1982 51.046L61.259 51.0251C61.3132 51.0065 61.3942 50.9785 61.5 50.9414C61.7118 50.8674 62.023 50.7573 62.4182 50.6141C63.2087 50.3277 64.3347 49.9091 65.6723 49.3818C68.3508 48.3259 71.8645 46.8395 75.2305 45.1101C78.615 43.3713 81.7732 41.4253 83.797 39.4682C84.8097 38.489 85.4744 37.5671 85.7775 36.7297C86.0656 35.9332 86.0329 35.2088 85.6284 34.4899C84.8204 33.0533 82.9532 32.3588 80.0597 32.4138C77.2282 32.4676 73.7831 33.2416 70.3996 34.2821C67.0308 35.3181 63.7889 36.5974 61.3843 37.6204C60.1833 38.1313 59.1945 38.577 58.5069 38.8944C58.1631 39.0531 57.8949 39.1797 57.7133 39.2662C57.6225 39.3095 57.5533 39.3427 57.5073 39.365L57.4557 39.39L57.4432 39.3961L57.4403 39.3975L57.4397 39.3977L57 38.4996L57.4397 39.3977L55.5067 40.3441L56.03 38.2565L56.0302 38.2559L56.0309 38.2529L56.0342 38.2398L56.0475 38.1856C56.0594 38.1372 56.077 38.0646 56.0998 37.9693C56.1453 37.7788 56.2112 37.4977 56.2922 37.1387C56.454 36.4206 56.6756 35.3919 56.9133 34.1536C57.3894 31.6735 57.9271 28.3691 58.1822 25.0448C58.4389 21.7 58.4016 18.424 57.779 15.9596C57.1511 13.4739 56.0439 12.1728 54.3923 11.9938C52.7425 11.815 51.2751 12.9155 49.9596 15.3532C48.6666 17.7495 47.7252 21.0984 47.0525 24.5682C46.3833 28.0198 45.9944 31.5116 45.773 34.1471C45.6625 35.4631 45.594 36.5618 45.5532 37.3303C45.5328 37.7145 45.5194 38.016 45.511 38.2206C45.5068 38.3229 45.504 38.401 45.5021 38.4531L45.5001 38.5115L45.4997 38.5257L45.4996 38.5289L45.4996 38.5296L44.5 38.4996M56.5 60.4996L55.522 60.708L55.5221 60.7087L55.5228 60.712L55.5258 60.7262L55.5381 60.7849C55.549 60.8372 55.5651 60.9156 55.5859 61.0184C55.6274 61.2241 55.6875 61.5273 55.7609 61.9145C55.9078 62.6892 56.108 63.7992 56.3202 65.1366C56.745 67.8144 57.2157 71.3889 57.4055 74.9995C57.5963 78.6278 57.4986 82.2147 56.8272 84.9522C56.1416 87.7475 54.9764 89.2468 53.3398 89.5125C51.76 89.769 50.382 88.7628 49.1597 86.3015C47.9605 83.8866 47.1375 80.4641 46.584 76.8988C46.0337 73.3539 45.7621 69.7536 45.6285 67.0328C45.5618 65.6741 45.5297 64.5385 45.5142 63.7437C45.5065 63.3464 45.5029 63.0345 45.5013 62.8226C45.5005 62.7167 45.5002 62.6358 45.5001 62.5818L45.5 62.5211L45.5 62.5064L45.5 62.503L45.5 62.5023L44.5 62.4996L45.5 62.5022L45.5049 60.6478L43.9528 61.6626L43.9522 61.663L43.9493 61.6649L43.9364 61.6733L43.8832 61.7077C43.8357 61.7384 43.7643 61.7842 43.6705 61.8438C43.4829 61.9631 43.2058 62.1375 42.8508 62.356C42.1408 62.793 41.1203 63.4057 39.8827 64.1057C37.4035 65.508 34.0708 67.2506 30.6272 68.6342C27.1602 70.0272 23.6829 71.0137 20.8828 70.9918C19.4932 70.981 18.3367 70.7216 17.44 70.2005C16.5645 69.6915 15.8705 68.8957 15.4445 67.6711C14.9676 66.2999 15.6664 64.6541 17.6979 62.7296C19.671 60.8604 22.5973 59.0337 25.6817 57.4168C28.7516 55.8074 31.9142 54.4385 34.3149 53.4703C35.5139 52.9868 36.5196 52.6046 37.2246 52.3435C37.577 52.213 37.854 52.1129 38.0423 52.0457C38.1364 52.012 38.2083 51.9866 38.2563 51.9697L38.3102 51.9509L38.3233 51.9463L38.3263 51.9453L38.3269 51.9451L38 51M38 51L38.327 51.9451L40.3694 51.2384L38.5087 50.1391L38 51ZM38 51L38.5087 50.1391L38.5081 50.1387L38.5054 50.1371L38.4934 50.13L38.4441 50.1006C38.4003 50.0744 38.3346 50.035 38.2487 49.9831C38.0769 49.8793 37.8243 49.7254 37.5035 49.5265C36.8619 49.1286 35.9481 48.5512 34.8634 47.8353C32.6915 46.4018 29.8456 44.4202 27.1298 42.2179C24.402 40.0058 21.8597 37.614 20.2508 35.3651C18.5924 33.0469 18.1803 31.2548 18.8775 29.9788C19.5385 28.7694 21.0451 28.3134 23.644 28.8004C26.1691 29.2736 29.2519 30.5725 32.291 32.1429C35.3128 33.7044 38.2196 35.4962 40.3758 36.9017C41.4526 37.6035 42.3392 38.207 42.9556 38.6344C43.2638 38.8481 43.5044 39.0177 43.6673 39.1334C43.7487 39.1912 43.8107 39.2356 43.8521 39.2653L43.8985 39.2987L43.9097 39.3068L43.9123 39.3087L43.9128 39.3091L44.5 38.4996M44.5 38.4996L43.9129 39.3091L45.4428 40.4188L45.4996 38.5296L44.5 38.4996Z" stroke="#EDA710" stroke-width="2"/>
</svg>
