<svg width="105" height="109" viewBox="0 0 105 109" fill="none" xmlns="http://www.w3.org/2000/svg">
<g filter="url(#filter0_d_301_502)">
<path d="M45.7176 61.7623C45.9369 61.549 46.1504 61.3399 46.3576 61.1354C46.3562 61.1407 46.3549 61.146 46.3535 61.1512C45.4299 64.6841 44.3646 69.4218 43.8222 74.1816C43.2848 78.8976 43.2362 83.826 44.489 87.6403C45.1226 89.5693 46.1179 91.3027 47.6368 92.5547C49.1765 93.8238 51.1358 94.4998 53.5 94.4998C55.8627 94.4998 57.8051 93.8239 59.2991 92.5318C60.7714 91.2584 61.6758 89.5016 62.2015 87.5652C63.2399 83.74 62.9085 78.8085 62.1034 74.0986C61.3142 69.4819 60.0339 64.886 58.9314 61.3913C61.456 63.7871 64.7987 66.7615 68.3763 69.3989C72.1329 72.1681 76.2815 74.6668 80.0854 75.6479C82.0011 76.142 83.9332 76.2789 85.7217 75.7802C87.5503 75.2704 89.1046 74.1295 90.2655 72.3052C91.7082 70.0381 92.3142 67.8554 92.0585 65.7839C91.8027 63.7116 90.7128 61.9785 89.2047 60.5568C86.2532 57.7744 81.4031 55.9028 76.5073 54.6119C72.2354 53.4856 67.7342 52.7539 64.0065 52.2856C68.6839 50.9448 74.7106 49.0305 80.2684 46.6953C85.8577 44.3469 91.2208 41.4745 94.1491 38.1754C95.6349 36.5015 96.6409 34.5514 96.5176 32.3864C96.3936 30.2091 95.1502 28.1954 92.9673 26.3536C89.9636 23.8192 85.8275 24.214 81.8895 25.6181C77.8748 27.0495 73.5353 29.7067 69.5852 32.5456C65.7063 35.3334 62.1235 38.3549 59.4791 40.7097C59.5579 40.4722 59.6379 40.2292 59.7189 39.9809C60.9988 36.0586 62.5352 30.8042 63.536 25.5296C64.5282 20.3009 65.033 14.8632 64.1092 10.6622C63.6435 8.54398 62.7873 6.61195 61.3225 5.20234C59.8251 3.76147 57.8303 2.99998 55.3746 3C50.8271 3.00003 48.1561 6.28606 46.6726 10.3452C45.1885 14.4058 44.6829 19.7006 44.6297 24.8367C44.5762 30.0053 44.9812 35.157 45.3968 39.0054C45.418 39.2016 45.4393 39.3944 45.4605 39.5838C45.3897 39.493 45.318 39.4014 45.2455 39.3089C42.9483 36.3816 39.7409 32.602 36.1334 29.2529C32.555 25.9307 28.4484 22.9038 24.3458 21.659C22.2712 21.0296 20.1376 20.8375 18.0577 21.3491C15.9629 21.8643 14.0403 23.0648 12.3611 25.0238C10.9116 26.7149 10.3374 28.5796 10.6082 30.5033C10.8689 32.3542 11.8857 34.0751 13.236 35.6235C15.9271 38.7092 20.37 41.5885 24.9385 44.0287C29.5461 46.4898 34.4422 48.5869 38.1738 50.0654C38.6947 50.2718 39.1935 50.4663 39.6661 50.6483C39.2822 50.7406 38.8816 50.8385 38.4663 50.9417C34.7697 51.8604 29.88 53.213 25.1512 54.9427C20.4555 56.6602 15.7805 58.7979 12.6099 61.3332C11.0228 62.6022 9.70424 64.0553 9.00531 65.7111C8.27957 67.4304 8.26272 69.2808 9.14442 71.1421C10.3782 73.7467 12.0339 75.5687 14.0555 76.6437C16.0713 77.7156 18.307 77.9684 20.572 77.6926C25.0324 77.1494 29.8787 74.5235 34.2387 71.4529C38.6411 68.3524 42.7356 64.662 45.7176 61.7623Z" fill="white" stroke="white" stroke-width="3"/>
<path d="M50.9799 62.0194C51.4021 61.2522 51.779 60.56 52.0983 59.9697C52.4185 60.4103 52.7851 60.9126 53.1899 61.4633C54.7069 63.527 56.7635 66.2755 58.9161 69.0059C61.0628 71.729 63.3288 74.4648 65.2605 76.4874C66.2211 77.4932 67.1395 78.3659 67.946 78.9754C68.3469 79.2783 68.7687 79.5537 69.1911 79.7424C69.5771 79.9148 70.1788 80.1136 70.8376 79.9614C71.2235 79.8722 71.6044 79.662 71.8899 79.3032C72.1597 78.964 72.2643 78.5931 72.3014 78.3015C72.3703 77.7618 72.2431 77.2186 72.1142 76.8043C71.8407 75.9253 71.292 74.8218 70.6228 73.6407C69.2639 71.2423 67.1896 68.1489 65.0533 65.1197C62.9098 62.0802 60.6759 59.066 58.9798 56.8141C58.6373 56.3593 58.3165 55.9354 58.0227 55.5484C58.442 55.5556 58.8955 55.5628 59.3781 55.5695C62.0729 55.6074 65.6816 55.6328 69.3282 55.5827C72.9667 55.5328 76.6759 55.4074 79.5592 55.1393C80.9934 55.0059 82.2763 54.8327 83.2604 54.601C83.7477 54.4863 84.2229 54.3434 84.6258 54.1543C84.96 53.9974 85.5649 53.666 85.8659 53.0026C86.1525 52.3711 86.2846 51.6375 86.0532 50.8919C85.8248 50.1564 85.3158 49.6456 84.7916 49.3037C83.8074 48.6618 82.3894 48.3651 80.9453 48.2128C77.9628 47.8982 73.8019 48.1112 69.669 48.509C65.5065 48.9097 61.2628 49.5096 58.0663 50.0079C57.5027 50.0958 56.9712 50.1806 56.478 50.2606C57.0465 49.5111 57.6974 48.6486 58.4057 47.7023C60.8815 44.3949 64.0665 40.055 66.8862 35.9464C69.6767 31.8804 72.2002 27.9125 73.2664 25.3995C73.5335 24.7701 73.7533 24.1327 73.8336 23.5565C73.8978 23.0958 73.9593 22.0461 73.0854 21.3744C72.2549 20.736 71.2651 20.9869 70.7725 21.1544C70.1612 21.3622 69.4614 21.7407 68.688 22.2386C67.2874 23.1404 65.4189 25.1632 63.5081 27.4676C61.5465 29.8333 59.3892 32.686 57.3916 35.4266C55.3917 38.1704 53.541 40.8171 52.1909 42.7768C51.9772 43.087 51.776 43.38 51.5886 43.6536C51.375 43.1164 51.1332 42.5122 50.8679 41.8548C49.7936 39.1925 48.3302 35.6498 46.7779 32.1389C45.23 28.6382 43.5762 25.1289 42.1215 22.5524C41.4005 21.2755 40.6899 20.1578 40.0323 19.3787C39.7101 18.9968 39.3328 18.6137 38.9076 18.3472C38.5013 18.0926 37.7563 17.7708 36.9267 18.1139C36.2202 18.4061 35.8093 18.9738 35.598 19.5301C35.3987 20.0548 35.3492 20.6268 35.3576 21.1518C35.3745 22.207 35.6378 23.5009 36.0179 24.8694C36.7864 27.6367 38.1534 31.1235 39.6086 34.5006C41.0699 37.8919 42.6451 41.2292 43.853 43.715C44.1877 44.4038 44.4946 45.028 44.7634 45.5705C44.1268 45.5492 43.3899 45.5267 42.5746 45.5053C39.7332 45.4308 35.9309 45.3705 32.102 45.4282C28.2856 45.4856 24.3914 45.6608 21.3865 46.0675C19.895 46.2693 18.5413 46.5383 17.505 46.9123C16.9896 47.0983 16.4749 47.3373 16.0484 47.6615C15.6246 47.9837 15.1566 48.4936 15.0236 49.2345C14.8697 50.0916 15.2993 50.7425 15.689 51.1105C16.057 51.4582 16.522 51.6978 16.9413 51.8723C17.8014 52.2303 18.9693 52.5138 20.2573 52.7495C22.8648 53.2266 26.3463 53.573 29.7894 53.8245C33.2453 54.0769 36.7126 54.2371 39.3125 54.3341C40.1609 54.3658 40.9177 54.3907 41.5526 54.41C41.3604 54.9323 41.137 55.5433 40.8905 56.2247C40.062 58.5148 38.97 61.6056 37.9189 64.8013C36.8698 67.9908 35.8526 71.312 35.1805 74.0543C34.8452 75.4221 34.587 76.6814 34.4578 77.7254C34.3932 78.247 34.3569 78.7456 34.3662 79.1946C34.3751 79.6188 34.4257 80.1182 34.6139 80.5731C34.8508 81.1461 35.3577 81.7765 36.2367 81.9097C36.9659 82.0202 37.5883 81.7172 37.965 81.4842C38.7528 80.9971 39.5841 80.1027 40.3771 79.1197C42.0176 77.0863 43.9969 74.0245 45.8826 70.9011C47.7786 67.7609 49.6172 64.4956 50.9799 62.0194Z" fill="#F2A72A" stroke="#FFCF30" stroke-width="3"/>
<path d="M57.5 60.4996L56.5219 60.708L56.5221 60.7087L56.5228 60.712L56.5258 60.7262L56.538 60.7849C56.5489 60.8372 56.565 60.9156 56.5858 61.0184C56.6274 61.2241 56.6875 61.5273 56.7609 61.9145C56.9078 62.6892 57.1079 63.7992 57.3201 65.1366C57.745 67.8144 58.2156 71.3889 58.4055 74.9995C58.5963 78.6278 58.4986 82.2147 57.8272 84.9522C57.1416 87.7475 55.9763 89.2468 54.3397 89.5125C52.76 89.769 51.382 88.7628 50.1597 86.3015C48.9605 83.8866 48.1375 80.4641 47.584 76.8988C47.0337 73.3539 46.7621 69.7536 46.6284 67.0328C46.5617 65.6741 46.5296 64.5385 46.5142 63.7437C46.5064 63.3464 46.5029 63.0345 46.5013 62.8226C46.5005 62.7167 46.5001 62.6358 46.5 62.5818L46.4999 62.5211L46.4999 62.5064L46.4999 62.503L46.4999 62.5023L45.4999 62.4996L46.4999 62.5022L46.5048 60.6478L44.9527 61.6626L44.9521 61.663L44.9492 61.6649L44.9364 61.6733L44.8831 61.7077C44.8356 61.7384 44.7642 61.7842 44.6704 61.8438C44.4828 61.9631 44.2057 62.1375 43.8508 62.356C43.1408 62.793 42.1202 63.4057 40.8826 64.1057C38.4035 65.508 35.0708 67.2506 31.6271 68.6342C28.1601 70.0272 24.6828 71.0137 21.8828 70.9918C20.4931 70.981 19.3366 70.7216 18.44 70.2005C17.5644 69.6915 16.8704 68.8957 16.4444 67.6711C15.9675 66.2999 16.6664 64.6541 18.6979 62.7296C20.671 60.8604 23.5973 59.0337 26.6817 57.4168C29.7515 55.8074 32.9142 54.4385 35.3149 53.4703C36.5138 52.9868 37.5195 52.6046 38.2245 52.3435C38.5769 52.213 38.854 52.1129 39.0422 52.0457C39.1364 52.012 39.2083 51.9866 39.2563 51.9697L39.3102 51.9509L39.3233 51.9463L39.3263 51.9453L39.3269 51.9451L39 51M57.5 60.4996C58.0055 59.6368 58.0055 59.6368 58.0056 59.6369L58.0063 59.6373L58.0091 59.6389L58.0212 59.646L58.0702 59.6745C58.1138 59.6999 58.1789 59.7376 58.2642 59.7869C58.4347 59.8853 58.686 60.0295 59.0071 60.2117C59.6495 60.576 60.571 61.0918 61.685 61.6961C63.9148 62.9058 66.9076 64.4659 69.973 65.8758C73.0507 67.2915 76.1512 68.5322 78.6105 69.1294C79.8476 69.4299 80.8474 69.5482 81.57 69.4833C82.297 69.4181 82.5291 69.1963 82.6162 69.0317C83.4573 67.4429 83.0036 65.7391 81.3597 63.8322C79.7153 61.9247 77.0697 60.0707 74.1923 58.4309C71.3333 56.8016 68.326 55.4283 66.0261 54.4604C64.8779 53.9771 63.91 53.5965 63.2304 53.3372C62.8906 53.2076 62.6231 53.1083 62.4414 53.0418C62.3505 53.0085 62.2811 52.9834 62.2348 52.9668L62.183 52.9482L62.1705 52.9438L62.1676 52.9428L62.1671 52.9426L62.1671 52.9426L59.4413 51.9805L62.1789 51.0525L62.5 51.9996L62.179 51.0525L62.1797 51.0523L62.1832 51.0511L62.1981 51.046L62.259 51.0251C62.3131 51.0065 62.3941 50.9785 62.5 50.9414C62.7117 50.8674 63.0229 50.7573 63.4181 50.6141C64.2087 50.3277 65.3346 49.9091 66.6723 49.3818C69.3507 48.3259 72.8644 46.8395 76.2305 45.1101C79.6149 43.3713 82.7732 41.4253 84.797 39.4682C85.8096 38.489 86.4744 37.5671 86.7774 36.7297C87.0656 35.9332 87.0328 35.2088 86.6284 34.4899C85.8203 33.0533 83.9531 32.3588 81.0597 32.4138C78.2282 32.4676 74.783 33.2416 71.3995 34.2821C68.0307 35.3181 64.7888 36.5974 62.3842 37.6204C61.1833 38.1313 60.1944 38.577 59.5068 38.8944C59.1631 39.0531 58.8948 39.1797 58.7132 39.2662C58.6224 39.3095 58.5533 39.3427 58.5072 39.365L58.4556 39.39L58.4431 39.3961L58.4402 39.3975L58.4397 39.3977L58 38.4996L58.4397 39.3977L56.5067 40.3441L57.03 38.2565L57.0301 38.2559L57.0309 38.2529L57.0341 38.2398L57.0475 38.1856C57.0593 38.1372 57.077 38.0646 57.0997 37.9693C57.1452 37.7788 57.2112 37.4977 57.2921 37.1387C57.454 36.4206 57.6755 35.3919 57.9132 34.1536C58.3893 31.6735 58.927 28.3691 59.1822 25.0448C59.4388 21.7 59.4015 18.424 58.779 15.9596C58.151 13.4739 57.0438 12.1728 55.3922 11.9938C53.7425 11.815 52.2751 12.9155 50.9596 15.3532C49.6665 17.7495 48.7251 21.0984 48.0524 24.5682C47.3832 28.0198 46.9943 31.5116 46.773 34.1471C46.6624 35.4631 46.5939 36.5618 46.5532 37.3303C46.5328 37.7145 46.5193 38.016 46.511 38.2206C46.5068 38.3229 46.5039 38.401 46.5021 38.4531L46.5001 38.5115L46.4996 38.5257L46.4995 38.5289L46.4995 38.5296L45.4999 38.4996M57.5 60.4996L56.5219 60.708L56.0495 58.4906L58.0055 59.6368L57.5 60.4996ZM45.4999 38.4996L44.9128 39.3091L44.9122 39.3087L44.9096 39.3068L44.8984 39.2987L44.852 39.2653C44.8107 39.2356 44.7487 39.1912 44.6672 39.1334C44.5043 39.0177 44.2638 38.8481 43.9556 38.6344C43.3391 38.207 42.4525 37.6035 41.3758 36.9017C39.2196 35.4962 36.3128 33.7044 33.2909 32.1429C30.2519 30.5725 27.169 29.2736 24.6439 28.8004C22.0451 28.3134 20.5384 28.7694 19.8775 29.9788C19.1802 31.2548 19.5923 33.0469 21.2507 35.3651C22.8596 37.614 25.4019 40.0058 28.1298 42.2179C30.8455 44.4202 33.6914 46.4018 35.8633 47.8353C36.948 48.5512 37.8618 49.1286 38.5035 49.5265C38.8242 49.7254 39.0769 49.8793 39.2487 49.9831C39.3345 50.035 39.4002 50.0744 39.4441 50.1006L39.4933 50.13L39.5053 50.1371L39.5081 50.1387L39.5086 50.1391L39 51M45.4999 38.4996L46.4995 38.5296L46.4428 40.4188L44.9128 39.3091L45.4999 38.4996ZM39 51L39.5087 50.1391L41.3693 51.2384L39.3269 51.9451L39 51Z" stroke="#EDA710" stroke-width="2"/>
</g>
<defs>
<filter id="filter0_d_301_502" x="-5" y="0" width="112" height="113" filterUnits="userSpaceOnUse" color-interpolation-filters="sRGB">
<feFlood flood-opacity="0" result="BackgroundImageFix"/>
<feColorMatrix in="SourceAlpha" type="matrix" values="0 0 0 0 0 0 0 0 0 0 0 0 0 0 0 0 0 0 127 0" result="hardAlpha"/>
<feOffset dy="7"/>
<feGaussianBlur stdDeviation="3"/>
<feComposite in2="hardAlpha" operator="out"/>
<feColorMatrix type="matrix" values="0 0 0 0 0 0 0 0 0 0 0 0 0 0 0 0 0 0 0.25 0"/>
<feBlend mode="normal" in2="BackgroundImageFix" result="effect1_dropShadow_301_502"/>
<feBlend mode="normal" in="SourceGraphic" in2="effect1_dropShadow_301_502" result="shape"/>
</filter>
</defs>
</svg>
