<svg width="100" height="100" viewBox="0 0 100 100" fill="none" xmlns="http://www.w3.org/2000/svg">
<path d="M56.536 60.585C56.2384 59.5579 55.9589 58.6337 55.7135 57.8431C56.4185 58.3461 57.2515 58.931 58.1852 59.57C61.1921 61.6281 65.2573 64.2573 69.4675 66.5222C73.6556 68.7752 78.0767 70.7175 81.7741 71.3288C83.6239 71.6347 85.391 71.6249 86.8839 71.0692C88.4252 70.4955 89.5952 69.3671 90.2309 67.6324C90.8627 65.9082 90.7322 64.27 90.0111 62.7777C89.3069 61.3204 88.0659 60.0521 86.5523 58.9472C83.5308 56.7413 79.1539 54.9944 74.7468 53.6441C70.3177 52.2871 65.7636 51.3031 62.3244 50.6588C62.1728 50.6304 62.0233 50.6026 61.876 50.5755C62.0008 50.5462 62.1272 50.5164 62.255 50.4859C65.6176 49.6843 70.0552 48.4677 74.317 46.8107C78.5554 45.1629 82.725 43.0404 85.4663 40.383C86.845 39.0464 87.9067 37.5322 88.4009 35.8296C88.9011 34.1064 88.7971 32.2662 87.9668 30.3469C87.1764 28.5199 85.9372 27.3374 84.3477 26.7734C82.7985 26.2237 81.0331 26.3027 79.2267 26.7409C75.6278 27.614 71.477 30.0118 67.6074 32.7314C63.7132 35.4682 60.0046 38.6028 57.2755 41.0464C56.8204 41.4539 56.3921 41.8426 55.9943 42.2074C56.1627 41.7406 56.3391 41.2424 56.5209 40.7171C57.6881 37.3437 59.0837 32.8278 59.9776 28.297C60.8649 23.799 61.287 19.1496 60.3974 15.5753C59.9484 13.7713 59.1474 12.168 57.8324 11.0157C56.5034 9.85117 54.7458 9.23201 52.5551 9.23201C50.6114 9.23201 49.0267 9.89503 47.7973 11.0761C46.5919 12.234 45.7832 13.8351 45.2477 15.6394C44.1808 19.2345 44.1129 23.9372 44.4582 28.5212C44.8054 33.1303 45.58 37.7272 46.2652 41.1638C46.3701 41.6899 46.4729 42.1892 46.572 42.6577C46.2532 42.2783 45.9108 41.8752 45.547 41.4526C43.2351 38.7679 40.0466 35.2866 36.5586 32.1279C33.0876 28.9848 29.2459 26.0923 25.6273 24.6654C23.8114 23.9494 21.9873 23.5764 20.2606 23.7778C18.5055 23.9826 16.9144 24.7748 15.6017 26.2682C14.3216 27.7247 13.8279 29.3326 14.0333 30.9976C14.2328 32.6146 15.0778 34.1788 16.2563 35.6413C18.6081 38.5599 22.5473 41.3884 26.6547 43.8402C30.7861 46.3063 35.1868 48.4485 38.5466 49.9715C39.6261 50.4609 40.5998 50.8871 41.4248 51.2404C40.5849 51.4601 39.5977 51.7273 38.5038 52.0396C35.0228 53.0335 30.4421 54.4899 26.0793 56.334C21.7421 58.1672 17.5129 60.4271 14.8207 63.0667C13.4688 64.3922 12.4415 65.8739 12.0337 67.5094C11.6171 69.1799 11.8731 70.9085 12.9057 72.631C13.9369 74.3513 15.3504 75.4053 17.0299 75.8685C18.6779 76.323 20.5003 76.1872 22.3541 75.698C26.0462 74.7238 30.1649 72.2651 33.9589 69.5019C37.7738 66.7235 41.3497 63.5704 43.9662 61.1186C44.7782 60.3577 45.4992 59.6631 46.1078 59.0666C46.01 59.8029 45.9043 60.6516 45.7991 61.5881C45.4262 64.9084 45.0586 69.3492 45.0871 73.8012C45.1155 78.2315 45.5356 82.7682 46.7911 86.2309C48.0468 89.6942 50.277 92.3878 54.0327 92.3878C55.8526 92.3878 57.2877 91.7028 58.3217 90.4785C59.3209 89.2953 59.8857 87.6814 60.1783 85.8969C60.763 82.3311 60.3238 77.6704 59.5224 73.1256C58.7165 68.5547 57.524 63.9949 56.536 60.585Z" fill="#F99731" stroke="#FFD272" stroke-width="2"/>
<path d="M53.9325 52.9997C53.9325 52.9997 84.6318 60.1171 85 51C85.5 38.6171 53.9325 48.5001 53.9325 48.5001C53.9325 48.5001 79.9308 26.7152 69.5 21.5C61.5 17.5002 50.2328 46.851 50.2328 46.851C50.2328 46.851 45 15.9848 36.5 19.5002C26.8287 23.5 45.4999 48.5001 45.4999 48.5001C45.4999 48.5001 15.4999 37.5001 15.5 49.4997C15.5 60.5001 45.4999 52.9997 45.4999 52.9997C45.4999 52.9997 27.4999 75 35 80C45.4999 87 50.2328 55.0001 50.2328 55.0001C50.2328 55.0001 60.4999 85.5 69.5 78.5C78.5 71.5 53.9325 52.9997 53.9325 52.9997Z" fill="#FFEB9A"/>
<path d="M50.3788 52.2391L50.9754 52.009L50.3788 52.2391L50.3788 52.2391ZM49.919 52.594L50.335 53.0758C50.3881 53.2201 50.4482 53.3847 50.5145 53.5681C50.7949 54.3436 51.1859 55.4546 51.6272 56.7929C52.5108 59.4728 53.5911 63.0497 54.3888 66.6625C55.1911 70.2963 55.6873 73.8795 55.4552 76.6055C55.3391 77.969 55.0473 79.0287 54.5948 79.7624C54.1661 80.4576 53.5866 80.8785 52.7621 81.0124C51.9492 81.1443 51.3559 80.922 50.8506 80.4224C50.2978 79.8758 49.8162 78.9555 49.4404 77.6559C48.6911 75.0643 48.4801 71.3942 48.5568 67.5721C48.633 63.7741 48.9901 59.9207 49.3296 57.0101C49.4991 55.5564 49.6639 54.3417 49.786 53.4912C49.8396 53.1185 49.885 52.8159 49.919 52.594ZM49.9367 49.5191C49.9351 49.5092 49.9335 49.4989 49.9319 49.4885C49.8964 49.2576 49.8453 48.9179 49.7833 48.4852C49.6595 47.6197 49.4924 46.3828 49.3202 44.901C48.9754 41.9343 48.612 38.0007 48.5317 34.1072C48.4508 30.1914 48.6593 26.4064 49.4149 23.6934C49.7936 22.3333 50.2835 21.3424 50.8572 20.7315C51.3906 20.1635 52.0058 19.906 52.8145 19.9937C53.6281 20.0818 54.1937 20.4689 54.6174 21.1464C55.0697 21.8695 55.3653 22.9423 55.4834 24.3452C55.719 27.1459 55.2195 30.8717 54.4123 34.663C53.6097 38.4329 52.5223 42.1815 51.6329 44.9937C51.1887 46.3982 50.795 47.5657 50.5127 48.3811C50.3942 48.7233 50.2954 49.0034 50.2208 49.2128L49.9367 49.5191ZM50.7239 50.5687L50.2979 50.2621L50.3652 49.8516L50.7644 50.1121L50.7839 50.5908L50.7239 50.5687ZM55.7258 48.6652C54.7231 48.9599 53.8285 49.2118 53.0843 49.4159C53.6979 48.8503 54.4918 48.129 55.4202 47.3093C57.6903 45.3049 60.7541 42.7208 63.9464 40.3832C67.1559 38.0331 70.4263 35.9839 73.1201 34.9934C74.4717 34.4964 75.5823 34.3027 76.4234 34.3996C77.2059 34.4898 77.7541 34.8249 78.1283 35.4901C78.5185 36.1837 78.5172 36.8421 78.1821 37.5623C77.8211 38.3383 77.0627 39.1897 75.91 40.085C73.6124 41.8695 70.0812 43.5776 66.3187 45.0701C62.5765 46.5546 58.6865 47.7948 55.7258 48.6652ZM47.1402 52.4988C46.5442 53.1119 45.7366 53.9288 44.7772 54.865C42.655 56.9358 39.8026 59.5772 36.8589 61.888C33.8877 64.2204 30.9264 66.1323 28.5726 66.8493C27.3979 67.2072 26.5123 67.2241 25.8867 66.9888C25.3177 66.7748 24.7937 66.2874 24.4544 65.2016C24.0378 63.8682 24.8018 62.3587 27.0362 60.654C29.1972 59.0054 32.3586 57.4833 35.6779 56.1804C38.9806 54.884 42.3688 53.8315 44.9372 53.1021C45.7694 52.8658 46.514 52.6638 47.1402 52.4988ZM55.3457 53.7931C54.5955 53.2868 53.9306 52.8308 53.3765 52.4471C54.0152 52.571 54.7533 52.7195 55.5659 52.8919C58.3841 53.4897 62.0822 54.3722 65.6312 55.5141C69.2043 56.6638 72.5292 58.0465 74.6671 59.6114C75.7369 60.3944 76.4212 61.1603 76.7375 61.8812C77.0299 62.5473 77.0381 63.2349 76.6161 64.0319C76.5605 64.1369 76.3942 64.3429 75.6562 64.3293C74.9253 64.3159 73.9054 64.0768 72.6388 63.615C70.1255 62.6987 66.956 61.0259 63.8129 59.173C60.6818 57.3271 57.6239 55.3305 55.3457 53.7931ZM44.9269 46.9982C45.6789 47.7999 46.3317 48.5125 46.8545 49.0909C46.2832 48.8608 45.6315 48.5939 44.9184 48.2944C42.2776 47.1853 38.8076 45.6346 35.469 43.8615C32.1138 42.0796 28.9603 40.1087 26.9042 38.1724C25.8737 37.202 25.1829 36.2988 24.8499 35.493C24.5324 34.7246 24.5489 34.0807 24.8775 33.4794C25.1985 32.892 25.6335 32.6513 26.2597 32.628C26.9709 32.6016 27.9408 32.8667 29.1508 33.4645C31.5531 34.6514 34.469 36.9273 37.3317 39.4987C40.1775 42.0549 42.906 44.8436 44.9269 46.9982ZM50.7849 50.1255L50.7849 50.1255C50.8051 50.2075 50.8423 50.3587 50.9109 50.6376L50.7849 50.1255Z" stroke="#8F6F18" stroke-width="2"/>
</svg>
