<svg width="100" height="100" viewBox="0 0 100 100" fill="none" xmlns="http://www.w3.org/2000/svg">
<path d="M66.4302 55.5675C68.6656 55.7138 71.1108 55.7978 73.582 55.7472C77.9377 55.658 82.4992 55.1492 86.1515 53.7453C89.8154 52.337 92.8572 49.8941 93.4826 45.8212L93.5232 45.5567L93.4699 45.2945C92.9967 42.9687 91.9663 41.1542 90.464 39.8379C88.9766 38.5348 87.1268 37.8071 85.145 37.4664C81.2291 36.7934 76.5056 37.5823 72.0901 38.8237C69.256 39.6206 66.4739 40.626 64.0009 41.6245C65.9109 39.7762 67.9641 37.6657 69.874 35.4533C72.853 32.0023 75.5995 28.1727 76.8244 24.6274C77.4411 22.8425 77.7153 21.0086 77.3297 19.281C76.9327 17.5026 75.8708 15.9943 74.1229 14.8644C72.4495 13.7828 70.7216 13.4275 69.0203 13.7685C67.3668 14.0999 65.9037 15.0552 64.6349 16.2821C62.1196 18.7142 60.004 22.5708 58.3125 26.4626C57.2891 28.8172 56.395 31.247 55.645 33.4929C55.4742 30.847 55.1929 27.9009 54.7343 24.9653C54.0229 20.412 52.865 15.7454 50.9416 12.2637C49.0108 8.76831 46.081 6.12167 41.8411 6.54348C39.814 6.74515 38.2612 7.66049 37.2381 9.15606C36.2613 10.5839 35.8573 12.4074 35.7695 14.3182C35.5943 18.1338 36.6579 22.9457 38.0689 27.5434C38.889 30.2157 39.8437 32.869 40.7862 35.2904C39.5261 33.8754 38.1511 32.4212 36.7062 31.0325C33.5879 28.0355 30.0302 25.2314 26.5132 23.8566C24.74 23.1634 22.8997 22.8026 21.092 23.0279C19.2548 23.2568 17.5523 24.0798 16.0818 25.5804L15.9044 25.7613L15.7963 25.9905C14.1199 29.5459 15.3141 33.1365 17.5105 36.2228C19.7093 39.3125 23.1113 42.2099 26.5693 44.6707C28.2229 45.8475 29.9122 46.9403 31.5257 47.9221C29.6459 47.6108 27.6394 47.3393 25.6164 47.1648C21.4416 46.8049 17.0467 46.8438 13.5312 47.9003C9.9612 48.9733 7.01941 51.2121 6.51133 55.3232L6.49042 55.4923L6.508 55.6619C6.76198 58.1108 7.62106 60.0718 9.01876 61.5442C10.4054 63.0049 12.2169 63.8743 14.1948 64.3389C18.0948 65.2551 22.9403 64.6668 27.5057 63.5903C30.8718 62.7966 34.1947 61.71 37.0515 60.6536C35.1661 62.4505 33.1203 64.5308 31.2251 66.7293C28.3901 70.0178 25.7767 73.7009 24.6278 77.1765C24.0484 78.9295 23.8065 80.7327 24.1886 82.4485C24.5795 84.2038 25.5939 85.7293 27.2686 86.9254C28.9344 88.1151 30.6756 88.5792 32.4187 88.3248C34.1177 88.0769 35.6356 87.1732 36.9579 85.9784C39.5752 83.6136 41.8041 79.7621 43.5978 75.8576C44.2463 74.446 44.8481 73.0043 45.3991 71.5891C45.2984 74.0647 45.2739 76.6238 45.3932 79.0628C45.5827 82.9383 46.1407 86.7252 47.4665 89.4256C48.1382 90.7939 49.0619 91.9972 50.3463 92.7416C51.6661 93.5065 53.201 93.6907 54.8769 93.303L54.9958 93.2755L55.1086 93.2291C59.4263 91.456 61.4896 88.032 62.1389 84.1041C62.7735 80.2656 62.0796 75.8997 60.9601 71.8941C60.6975 70.9547 60.4092 70.0272 60.1049 69.1217C61.0683 70.2582 62.0872 71.4027 63.1438 72.5104C66.2314 75.7476 69.7557 78.7947 73.2436 80.3323C75.0023 81.1076 76.8419 81.5397 78.6591 81.3411C80.5122 81.1386 82.2163 80.2929 83.6746 78.7371L83.7676 78.6379L83.8413 78.5235C85.0152 76.7006 85.4526 74.8099 85.2509 72.925C85.0524 71.0703 84.2477 69.3293 83.1207 67.739C80.8861 64.586 77.1857 61.7495 73.3932 59.3977C71.0696 57.9567 68.6583 56.6657 66.4302 55.5675Z" fill="#F7D757" stroke="#FFE89B" stroke-width="3"/>
<path d="M63.1347 61.3326C65.1513 62.3081 67.3858 63.3047 69.695 64.1862C73.765 65.74 78.1835 66.9824 82.0957 67.0536C86.0202 67.125 89.757 66.0041 91.8669 62.4645L92.0039 62.2347L92.053 61.9716C92.4883 59.6384 92.2151 57.5697 91.3175 55.7855C90.4287 54.0189 88.9878 52.6495 87.2791 51.5892C83.903 49.4942 79.2292 48.4506 74.6708 47.9421C71.745 47.6158 68.7889 47.5022 66.122 47.4984C68.5865 46.5032 71.2823 45.3187 73.8834 43.986C77.9407 41.9071 81.9249 39.39 84.3921 36.5647C85.6343 35.1423 86.5773 33.5457 86.8691 31.7998C87.1694 30.0026 86.752 28.2058 85.5566 26.502C84.4122 24.8708 82.9445 23.8924 81.2397 23.5692C79.5828 23.2551 77.868 23.5907 76.2311 24.251C72.9863 25.5599 69.5768 28.339 66.547 31.3102C64.7139 33.1078 62.9724 35.0236 61.4335 36.8231C62.2693 34.307 63.1155 31.471 63.7935 28.5781C64.845 24.0912 65.5252 19.3314 65.0509 15.3822C64.5748 11.4174 62.8541 7.86392 58.7663 6.6618C56.812 6.0871 55.029 6.35195 53.519 7.35354C52.0773 8.30981 51.0178 9.84791 50.2185 11.5857C48.6225 15.0559 47.8002 19.9149 47.3804 24.7058C47.1364 27.4905 47.0243 30.3081 46.988 32.9062C46.3518 31.1214 45.624 29.2572 44.8066 27.4273C43.0429 23.4783 40.7994 19.543 38.0566 16.9474C36.6738 15.6388 35.1039 14.613 33.344 14.1426C31.5554 13.6645 29.6684 13.7876 27.7418 14.6257L27.5094 14.7267L27.3232 14.8985C24.4338 17.5635 24.1914 21.3398 25.0672 25.0252C25.9441 28.7146 28.0083 32.6779 30.2883 36.2576C31.3787 37.9695 32.5336 39.617 33.6599 41.1331C32.0349 40.1383 30.2774 39.1328 28.4682 38.2111C24.7344 36.309 20.6469 34.6937 16.9921 34.352C13.2805 34.005 9.71305 34.9746 7.69761 38.5935L7.61467 38.7424L7.56726 38.9062C6.88252 41.2711 6.94189 43.4112 7.68398 45.3008C8.4202 47.1755 9.77235 48.6619 11.4307 49.8355C14.7008 52.1499 19.4123 53.4253 24.0476 54.143C27.4654 54.6721 30.9531 54.9136 33.9974 55.008C31.5751 55.9648 28.8976 57.124 26.3152 58.4494C22.4524 60.4318 18.6466 62.8632 16.276 65.6525C15.0804 67.0593 14.1788 68.6395 13.8882 70.3731C13.591 72.1467 13.9579 73.9416 15.0605 75.6793C16.1572 77.4077 17.5965 78.4919 19.3075 78.9111C20.9752 79.3197 22.7214 79.0526 24.3957 78.4422C27.7098 77.234 31.2225 74.502 34.3518 71.5576C35.4831 70.4931 36.5824 69.3831 37.6248 68.2786C36.6014 70.535 35.6171 72.8974 34.8113 75.2025C33.5309 78.8653 32.6252 82.5843 32.8392 85.5851C32.9476 87.1054 33.3516 88.5676 34.2621 89.7401C35.1978 90.9448 36.551 91.6922 38.2499 91.9626L38.3704 91.9817L38.4924 91.9812C43.1599 91.9602 46.3585 89.5623 48.4361 86.1661C50.4663 82.8473 51.4636 78.5406 51.9311 74.4078C52.0407 73.4386 52.122 72.4708 52.1802 71.5173C52.646 72.9324 53.1602 74.3759 53.7232 75.7994C55.3684 79.9595 57.4896 84.1075 60.1442 86.8429C61.4828 88.2222 63.0252 89.3138 64.7839 89.8125C66.5773 90.3211 68.4743 90.1776 70.4103 89.2837L70.5338 89.2267L70.6451 89.1484C72.4179 87.9002 73.5336 86.3123 74.0548 84.4897C74.5677 82.6963 74.4761 80.7805 74.0292 78.8833C73.143 75.1217 70.7794 71.1027 68.1485 67.4983C66.5365 65.2899 64.7869 63.1875 63.1347 61.3326Z" fill="#EDA710" stroke="#FFC64B" stroke-width="3"/>
</svg>
