<svg width="100" height="100" viewBox="0 0 100 100" fill="none" xmlns="http://www.w3.org/2000/svg">
<path d="M66.4302 55.5675C68.6656 55.7138 71.1108 55.7978 73.582 55.7472C77.9377 55.658 82.4992 55.1492 86.1515 53.7453C89.8154 52.337 92.8572 49.8941 93.4826 45.8212L93.5232 45.5567L93.4699 45.2945C92.9967 42.9687 91.9663 41.1542 90.464 39.8379C88.9766 38.5348 87.1268 37.8071 85.145 37.4664C81.2291 36.7934 76.5056 37.5823 72.0901 38.8237C69.256 39.6206 66.4739 40.626 64.0009 41.6245C65.9109 39.7762 67.9641 37.6657 69.874 35.4533C72.853 32.0023 75.5995 28.1727 76.8244 24.6274C77.4411 22.8425 77.7152 21.0086 77.3296 19.281C76.9327 17.5026 75.8708 15.9943 74.1229 14.8644C72.4495 13.7828 70.7216 13.4275 69.0203 13.7685C67.3668 14.0999 65.9037 15.0552 64.6349 16.2821C62.1196 18.7142 60.004 22.5708 58.3125 26.4626C57.2891 28.8172 56.395 31.247 55.645 33.4929C55.4742 30.847 55.1929 27.9009 54.7343 24.9653C54.0229 20.412 52.865 15.7454 50.9416 12.2637C49.0108 8.76831 46.081 6.12167 41.8411 6.54348C39.814 6.74515 38.2612 7.66049 37.2381 9.15606C36.2613 10.5839 35.8573 12.4074 35.7695 14.3182C35.5943 18.1338 36.6579 22.9457 38.0689 27.5434C38.889 30.2157 39.8437 32.869 40.7862 35.2904C39.5261 33.8754 38.1511 32.4212 36.7062 31.0325C33.5879 28.0355 30.0302 25.2314 26.5132 23.8566C24.74 23.1634 22.8997 22.8026 21.092 23.0279C19.2548 23.2568 17.5523 24.0798 16.0818 25.5804L15.9044 25.7613L15.7963 25.9905C14.1199 29.5459 15.3141 33.1365 17.5105 36.2228C19.7093 39.3125 23.1113 42.2099 26.5693 44.6707C28.2229 45.8475 29.9122 46.9403 31.5257 47.9221C29.6459 47.6108 27.6394 47.3393 25.6164 47.1648C21.4416 46.8049 17.0467 46.8438 13.5312 47.9003C9.9612 48.9733 7.01941 51.2121 6.51133 55.3232L6.49042 55.4923L6.508 55.6619C6.76198 58.1108 7.62106 60.0718 9.01876 61.5442C10.4054 63.0049 12.2169 63.8743 14.1948 64.3389C18.0948 65.2551 22.9403 64.6668 27.5057 63.5903C30.8718 62.7966 34.1947 61.71 37.0515 60.6536C35.1661 62.4505 33.1203 64.5308 31.2251 66.7293C28.3901 70.0178 25.7767 73.7009 24.6278 77.1765C24.0484 78.9295 23.8065 80.7327 24.1886 82.4485C24.5795 84.2038 25.5939 85.7293 27.2686 86.9254C28.9344 88.1151 30.6756 88.5792 32.4187 88.3248C34.1177 88.0769 35.6356 87.1732 36.9579 85.9784C39.5752 83.6136 41.8041 79.7621 43.5978 75.8576C44.2463 74.446 44.8481 73.0044 45.3991 71.5891C45.2984 74.0648 45.2739 76.6238 45.3932 79.0628C45.5827 82.9383 46.1407 86.7252 47.4665 89.4256C48.1382 90.7939 49.0619 91.9972 50.3463 92.7416C51.6661 93.5065 53.2009 93.6907 54.8769 93.303L54.9958 93.2755L55.1086 93.2291C59.4263 91.456 61.4896 88.032 62.1389 84.1041C62.7735 80.2656 62.0796 75.8997 60.9601 71.8941C60.6975 70.9547 60.4092 70.0272 60.1049 69.1217C61.0683 70.2582 62.0872 71.4027 63.1438 72.5104C66.2314 75.7476 69.7557 78.7947 73.2436 80.3323C75.0023 81.1076 76.8419 81.5397 78.6591 81.3411C80.5122 81.1386 82.2163 80.2929 83.6746 78.7371L83.7676 78.6379L83.8413 78.5235C85.0152 76.7006 85.4526 74.8099 85.2509 72.925C85.0524 71.0703 84.2477 69.3293 83.1207 67.739C80.8861 64.586 77.1856 61.7495 73.3932 59.3977C71.0696 57.9567 68.6583 56.6657 66.4302 55.5675Z" fill="#F3CF3C" stroke="#FFE9A0" stroke-width="3"/>
<path d="M54.5694 48.9964C54.5694 48.9964 78.6617 43.2306 77.6088 55.045C76.5558 66.8594 52.9115 52.2675 54.0756 52.4102C55.2396 52.5528 71.8212 61.7476 63.9762 74.2884C56.1313 86.8291 51.4668 54.6662 51.4668 54.6662C51.4668 54.6662 52.9323 79.0102 45.205 77.8315C37.4778 76.6529 48.0604 54.8441 48.0604 54.8441C48.0604 54.8441 40.1718 70.7706 29.0024 68.5773C17.833 66.3839 45.7734 52.8173 45.7734 52.8173C45.7734 52.8173 22.6015 61.4938 21.2755 49.6131C19.9494 37.7324 46.8171 49.6035 46.8171 49.6035C46.8171 49.6035 25.7687 42.3617 30.5274 32.2431C35.286 22.1244 47.735 46.7769 47.735 46.7769C47.735 46.7769 38.5807 22.7877 48.3619 24.038C58.143 25.2883 50.9873 46.8827 50.9873 46.8827C50.9873 46.8827 63.5588 18.5505 70.8102 28.4603C78.0615 38.3701 54.5694 48.9964 54.5694 48.9964Z" fill="#EDA710"/>
</svg>
