<svg width="100" height="100" viewBox="0 0 100 100" fill="none" xmlns="http://www.w3.org/2000/svg">
<path d="M33.5582 93.004C39.0582 96.5397 51.0581 54.0039 51.0581 54.0039C51.0581 54.0039 44.1946 106.183 54.0581 95.004C61.5581 86.504 53.5581 54.5039 53.5581 54.5039C53.5581 54.5039 66.0581 98.5039 74.0581 92.5039C84.0581 85.0039 56.0581 54.0039 56.0581 54.0039C56.0581 54.0039 77.5581 77.5039 89.0581 77.0039C100.558 76.5039 58.5581 52.0039 58.5581 52.0039C58.5581 52.0039 93.0581 68.2302 94.5581 59.5039C96.0581 50.7777 59.5581 49.2361 59.5581 49.2361C59.5581 49.2361 96.0581 51.1413 96.0581 44.7152C96.0581 34.6218 59.5581 46.0039 59.5581 46.0039C59.5581 46.0039 94.5581 33.5039 89.0581 24.134C83.5581 14.764 58.5581 43.5039 58.5581 43.5039C58.5581 43.5039 83.5839 16.8989 77.5581 13.0039C66.4824 5.84468 56.0581 42.7083 56.0581 42.7083C56.0581 42.7083 66.5581 6.00381 58.0466 5.00381C49.5351 4.00381 52.0581 42.0038 52.0581 42.0038C52.0581 42.0038 48.4277 3.56894 44.0581 4.00366C31.112 5.29162 49.2838 42.7083 49.2838 42.7083C49.2838 42.7083 30.0581 8.00395 23.5581 14.0039C16.0581 20.9271 46.5581 44.5039 46.5581 44.5039C46.5581 44.5039 11.7302 21.997 9.05815 30.0039C7.05816 35.997 46.0582 46.5039 46.0582 46.5039C46.0582 46.5039 -6.62516 40.5166 4.55811 48.5039C11.1197 53.1904 46.5581 48.5039 46.5581 48.5039C46.5581 48.5039 5.05815 57.0039 8.05815 65.0039C10.3472 71.1081 47.5582 51.0039 47.5582 51.0039C47.5582 51.0039 9.05815 75.7182 17.5582 83.004C21.0582 86.004 49.0582 54.0039 49.0582 54.0039C49.0582 54.0039 26.5582 88.504 33.5582 93.004Z" fill="white"/>
<path d="M17.9328 71.1266C19.8916 76.2541 49.1834 53.2842 49.1834 53.2842C49.1834 53.2842 18.5639 85.3527 30.7993 82.6394C40.1027 80.5762 50.6249 54.8622 50.6249 54.8622C50.6249 54.8622 37.1712 90.9618 45.568 90.8456C56.0641 90.7004 52.5644 55.7606 52.5644 55.7606C52.5644 55.7606 55.4028 82.383 63.4281 87.7389C71.4534 93.0947 55.2506 55.6393 55.2506 55.6393C55.2506 55.6393 70.5011 83.7562 75.86 78.5675C81.2188 73.3788 57.3049 54.2531 57.3049 54.2531C57.3049 54.2531 81.0378 73.626 84.2372 69.2579C89.2624 62.397 58.9141 52.0561 58.9141 52.0561C58.9141 52.0561 88.8046 60.8942 89.7505 51.801C90.6964 42.7078 59.4825 49.8615 59.4825 49.8615C59.4825 49.8615 89.6509 44.1718 87.5155 38.5398C83.5904 28.1877 58.1882 48.0824 58.1882 48.0824C58.1882 48.0824 83.5624 28.3334 78.3048 23.4381C73.0471 18.5427 55.8341 45.6225 55.8341 45.6225C55.8341 45.6225 72.5148 17.6987 69.3436 15.83C59.9482 10.2935 53.6074 44.7273 53.6074 44.7273C53.6074 44.7273 57.8852 11.6152 50.5026 12.4743C41.9842 13.4656 50.8702 44.5979 50.8702 44.5979C50.8702 44.5979 38.525 12.0494 32.7317 16.1686C28.3955 19.2518 49.5364 45.7097 49.5364 45.7097C49.5364 45.7097 16.8927 15.5468 20.4782 26.515C22.5819 32.9504 48.8788 47.3168 48.8788 47.3168C48.8788 47.3168 16.5844 32.5405 14.63 39.4642C13.1388 44.7472 48.3103 49.5115 48.3103 49.5115C48.3103 49.5115 9.97189 47.2425 12.0923 56.4047C12.9654 60.1774 47.831 52.2936 47.831 52.2936C47.831 52.2936 15.4398 64.6008 17.9328 71.1266Z" fill="#FFD64E"/>
<path d="M26.9708 70.2431C29.0849 74.031 49.3872 52.7402 49.3872 52.7402C49.3872 52.7402 29.0795 81.2981 38.341 77.7868C45.3833 75.117 50.6938 53.8108 50.6938 53.8108C50.6938 53.8108 44.2695 83.5727 50.8237 82.5285C59.0165 81.2233 52.3127 54.2932 52.3127 54.2932C52.3127 54.2932 57.5551 74.7932 64.4399 78.0711C71.3248 81.349 54.4 53.8934 54.4 53.8934C54.4 53.8934 69.5198 74.1531 73.1221 69.4865C76.7243 64.8199 55.8493 52.576 55.8493 52.576C55.8493 52.576 76.6108 65.0338 78.6172 61.2542C81.7687 55.3176 56.8584 50.675 56.8584 50.675C56.8584 50.675 81.2401 54.1942 80.9476 46.9747C80.6551 39.7553 57.0539 48.894 57.0539 48.894C57.0539 48.894 80.0036 41.019 77.694 36.8564C73.4488 29.2054 55.8396 47.6495 55.8396 47.6495C55.8396 47.6495 73.4435 29.3225 68.7756 26.0906C64.1076 22.8587 53.7191 45.9927 53.7191 45.9927C53.7191 45.9927 63.5955 22.259 60.9031 21.1574C52.9261 17.8938 51.8759 45.5453 51.8759 45.5453C51.8759 45.5453 51.4626 19.1618 45.786 20.6718C39.2361 22.4142 49.7204 45.7549 49.7204 45.7549C49.7204 45.7549 36.3697 21.6992 32.3063 25.5787C29.2648 28.4824 48.8034 46.7759 48.8034 46.7759C48.8034 46.7759 19.8475 26.8905 23.897 35.062C26.273 39.8565 48.4715 48.1075 48.4715 48.1075C48.4715 48.1075 21.5356 40.2168 20.7931 45.8539C20.2265 50.1551 48.276 49.8886 48.276 49.8886C48.276 49.8886 18.0328 52.4663 20.7314 59.3917C21.8426 62.2433 48.217 52.119 48.217 52.119C48.217 52.119 24.2801 65.4221 26.9708 70.2431Z" fill="#E1B41F"/>
</svg>
