<svg width="104" height="108" viewBox="0 0 104 108" fill="none" xmlns="http://www.w3.org/2000/svg">
<g filter="url(#filter0_d_301_500)">
<path d="M29.5057 63.5903C32.8718 62.7966 36.1947 61.71 39.0515 60.6536C37.1661 62.4505 35.1203 64.5308 33.2251 66.7293C30.3901 70.0178 27.7767 73.7009 26.6278 77.1765C26.0484 78.9295 25.8065 80.7327 26.1886 82.4485C26.5795 84.2038 27.5939 85.7293 29.2686 86.9254C30.9344 88.1151 32.6756 88.5792 34.4187 88.3248C36.1177 88.0769 37.6356 87.1732 38.9579 85.9784C41.5752 83.6136 43.8041 79.7621 45.5978 75.8576C46.2463 74.446 46.8481 73.0044 47.3991 71.5891C47.2984 74.0648 47.2739 76.6238 47.3932 79.0628C47.5827 82.9383 48.1407 86.7252 49.4665 89.4256C50.1382 90.7939 51.0619 91.9972 52.3463 92.7416C53.6661 93.5065 55.201 93.6907 56.8769 93.303L56.9958 93.2755L57.1086 93.2291C61.4263 91.456 63.4896 88.032 64.1389 84.1041C64.7735 80.2656 64.0796 75.8997 62.9601 71.8941C62.6975 70.9547 62.4092 70.0272 62.1049 69.1217C63.0683 70.2582 64.0872 71.4027 65.1438 72.5104C68.2314 75.7476 71.7557 78.7947 75.2436 80.3323C77.0023 81.1076 78.8419 81.5397 80.6591 81.3411C82.5122 81.1386 84.2163 80.2929 85.6746 78.7371L85.7676 78.6379L85.8413 78.5235C87.0152 76.7006 87.4526 74.8099 87.2509 72.925C87.0524 71.0703 86.2477 69.3293 85.1207 67.739C82.8861 64.586 79.1857 61.7495 75.3932 59.3977C73.0696 57.9567 70.6583 56.6657 68.4302 55.5675C70.6656 55.7138 73.1108 55.7978 75.582 55.7472C79.9377 55.658 84.4992 55.1492 88.1515 53.7453C91.8154 52.337 94.8572 49.8941 95.4826 45.8212L95.5232 45.5567L95.4699 45.2945C94.9967 42.9687 93.9663 41.1542 92.464 39.8379C90.9766 38.5348 89.1268 37.8071 87.145 37.4664C83.2291 36.7934 78.5056 37.5823 74.0901 38.8237C71.256 39.6206 68.4739 40.626 66.0009 41.6245C67.9109 39.7762 69.9641 37.6657 71.874 35.4533C74.853 32.0023 77.5995 28.1727 78.8244 24.6274C79.4411 22.8425 79.7153 21.0086 79.3297 19.281C78.9327 17.5026 77.8708 15.9943 76.1229 14.8644C74.4495 13.7828 72.7216 13.4275 71.0203 13.7685C69.3668 14.0999 67.9037 15.0552 66.6349 16.2821C64.1196 18.7142 62.004 22.5708 60.3125 26.4626C59.2891 28.8172 58.395 31.247 57.645 33.4929C57.4742 30.847 57.1929 27.9009 56.7343 24.9653C56.0229 20.412 54.865 15.7454 52.9417 12.2637C51.0108 8.76831 48.081 6.12167 43.8411 6.54348C41.814 6.74515 40.2612 7.66049 39.2381 9.15606C38.2613 10.5839 37.8573 12.4074 37.7695 14.3182C37.5943 18.1338 38.6579 22.9457 40.0689 27.5434C40.889 30.2157 41.8437 32.869 42.7862 35.2904C41.5261 33.8754 40.1511 32.4212 38.7062 31.0325C35.5879 28.0355 32.0302 25.2314 28.5132 23.8566C26.74 23.1634 24.8997 22.8026 23.092 23.0279C21.2548 23.2568 19.5523 24.0798 18.0818 25.5804L17.9044 25.7613L17.7963 25.9905C16.1199 29.5459 17.3141 33.1365 19.5105 36.2228C21.7093 39.3125 25.1113 42.2099 28.5693 44.6707C30.2229 45.8475 31.9122 46.9403 33.5257 47.9221C31.6459 47.6108 29.6394 47.3393 27.6164 47.1648C23.4416 46.8049 19.0467 46.8438 15.5312 47.9003C11.9612 48.9733 9.01941 51.2121 8.51133 55.3232L8.49042 55.4923L8.508 55.6619C8.76198 58.1108 9.62106 60.0718 11.0188 61.5442C12.4054 63.0049 14.2169 63.8743 16.1948 64.3389C20.0948 65.2551 24.9403 64.6668 29.5057 63.5903Z" fill="#F7D757" stroke="#FFE89B" stroke-width="3"/>
<path d="M26.0476 54.143C29.4654 54.6721 32.9531 54.9136 35.9974 55.008C33.5751 55.9648 30.8976 57.124 28.3152 58.4494C24.4524 60.4318 20.6466 62.8632 18.276 65.6525C17.0804 67.0593 16.1788 68.6395 15.8882 70.3731C15.591 72.1467 15.9579 73.9416 17.0605 75.6793C18.1572 77.4077 19.5965 78.4919 21.3075 78.9111C22.9752 79.3197 24.7214 79.0526 26.3957 78.4422C29.7098 77.234 33.2225 74.502 36.3518 71.5576C37.4831 70.4931 38.5824 69.3831 39.6248 68.2786C38.6014 70.535 37.6171 72.8974 36.8113 75.2025C35.5309 78.8653 34.6252 82.5843 34.8392 85.5851C34.9476 87.1054 35.3516 88.5676 36.2621 89.7401C37.1978 90.9448 38.551 91.6922 40.2499 91.9626L40.3704 91.9817L40.4924 91.9812C45.1599 91.9602 48.3585 89.5623 50.4361 86.1661C52.4663 82.8473 53.4636 78.5406 53.9311 74.4078C54.0407 73.4386 54.122 72.4707 54.1802 71.5173C54.646 72.9324 55.1602 74.3759 55.7232 75.7994C57.3684 79.9595 59.4896 84.1075 62.1442 86.8429C63.4828 88.2222 65.0252 89.3138 66.7839 89.8125C68.5774 90.3211 70.4743 90.1776 72.4103 89.2837L72.5338 89.2267L72.6451 89.1484C74.4179 87.9002 75.5336 86.3123 76.0548 84.4897C76.5677 82.6963 76.4761 80.7805 76.0292 78.8833C75.143 75.1217 72.7794 71.1027 70.1485 67.4983C68.5365 65.2899 66.7869 63.1875 65.1347 61.3326C67.1513 62.3081 69.3858 63.3047 71.695 64.1862C75.765 65.74 80.1835 66.9824 84.0957 67.0536C88.0202 67.125 91.757 66.0041 93.8669 62.4645L94.0039 62.2347L94.053 61.9716C94.4883 59.6384 94.2151 57.5697 93.3175 55.7855C92.4287 54.0189 90.9878 52.6495 89.2792 51.5892C85.9031 49.4942 81.2292 48.4506 76.6708 47.9421C73.745 47.6158 70.7889 47.5022 68.122 47.4984C70.5865 46.5032 73.2823 45.3187 75.8834 43.986C79.9407 41.9071 83.9249 39.39 86.3921 36.5647C87.6343 35.1423 88.5773 33.5457 88.8691 31.7998C89.1694 30.0026 88.752 28.2058 87.5566 26.502C86.4122 24.8708 84.9445 23.8924 83.2397 23.5692C81.5828 23.2551 79.868 23.5907 78.2311 24.251C74.9863 25.5599 71.5768 28.339 68.547 31.3102C66.7139 33.1078 64.9724 35.0236 63.4335 36.8231C64.2693 34.307 65.1155 31.471 65.7935 28.5781C66.845 24.0912 67.5252 19.3314 67.0509 15.3822C66.5748 11.4174 64.8541 7.86392 60.7663 6.6618C58.812 6.0871 57.029 6.35195 55.519 7.35354C54.0773 8.30981 53.0178 9.84791 52.2185 11.5857C50.6225 15.0559 49.8002 19.9149 49.3804 24.7058C49.1364 27.4905 49.0243 30.3081 48.988 32.9062C48.3518 31.1214 47.624 29.2572 46.8067 27.4273C45.0429 23.4783 42.7994 19.543 40.0566 16.9474C38.6738 15.6388 37.1039 14.613 35.344 14.1426C33.5554 13.6645 31.6684 13.7876 29.7418 14.6257L29.5094 14.7267L29.3232 14.8985C26.4338 17.5635 26.1914 21.3398 27.0672 25.0252C27.9441 28.7146 30.0083 32.6779 32.2883 36.2576C33.3787 37.9695 34.5336 39.617 35.6599 41.1331C34.0349 40.1383 32.2774 39.1328 30.4682 38.2111C26.7345 36.309 22.6469 34.6937 18.9921 34.352C15.2805 34.005 11.7131 34.9746 9.69761 38.5935L9.61467 38.7424L9.56726 38.9062C8.88252 41.2711 8.94189 43.4112 9.68398 45.3008C10.4202 47.1755 11.7723 48.6619 13.4307 49.8355C16.7008 52.1499 21.4123 53.4253 26.0476 54.143Z" fill="#EDA710" stroke="#FFC64B" stroke-width="3"/>
</g>
<defs>
<filter id="filter0_d_301_500" x="-4" y="0" width="112" height="113" filterUnits="userSpaceOnUse" color-interpolation-filters="sRGB">
<feFlood flood-opacity="0" result="BackgroundImageFix"/>
<feColorMatrix in="SourceAlpha" type="matrix" values="0 0 0 0 0 0 0 0 0 0 0 0 0 0 0 0 0 0 127 0" result="hardAlpha"/>
<feOffset dy="7"/>
<feGaussianBlur stdDeviation="3"/>
<feComposite in2="hardAlpha" operator="out"/>
<feColorMatrix type="matrix" values="0 0 0 0 0 0 0 0 0 0 0 0 0 0 0 0 0 0 0.25 0"/>
<feBlend mode="normal" in2="BackgroundImageFix" result="effect1_dropShadow_301_500"/>
<feBlend mode="normal" in="SourceGraphic" in2="effect1_dropShadow_301_500" result="shape"/>
</filter>
</defs>
</svg>
