<svg width="100" height="107" viewBox="0 0 100 107" fill="none" xmlns="http://www.w3.org/2000/svg">
<g filter="url(#filter0_d_301_505)">
<path d="M35.0502 41.7792C35.4007 42.1239 35.738 42.4544 36.0602 42.7691C33.1703 42.166 29.4192 41.5058 25.6509 41.1917C21.7214 40.8643 17.6058 40.8969 14.4131 41.8738C12.8037 42.3663 11.3209 43.1307 10.2315 44.3123C9.11182 45.5268 8.5 47.0837 8.5 48.9487C8.5 50.8365 9.15309 52.3965 10.3389 53.5881C11.4862 54.7409 13.0396 55.4578 14.716 55.9001C18.0492 56.7795 22.3527 56.6957 26.4749 56.256C30.636 55.8122 34.7788 54.9855 37.8694 54.2742C37.9266 54.261 37.9836 54.2478 38.0401 54.2347C37.6326 54.6768 37.1973 55.1505 36.7386 55.6519C33.8859 58.7705 30.1218 62.9664 26.4862 67.2655C22.8595 71.5542 19.3259 75.9863 16.9563 79.5673C15.7803 81.3446 14.836 82.9933 14.3288 84.3517C14.078 85.0233 13.8908 85.7348 13.8971 86.4127C13.9038 87.122 14.1347 87.9552 14.8902 88.5211C15.5918 89.0465 16.4063 89.0922 17.0684 88.989C17.7258 88.8865 18.3986 88.6165 19.043 88.2824C20.3391 87.6105 21.8505 86.5033 23.4524 85.1644C26.6754 82.4705 30.5331 78.6089 34.2196 74.6911C37.9151 70.7638 41.4746 66.7416 44.108 63.704C44.4743 63.2814 44.8228 62.8778 45.1514 62.496C45.0007 63.5465 44.8385 64.685 44.6765 65.8939C44.2072 69.3966 43.7557 73.3916 43.6674 77.1653C43.58 80.9017 43.8417 84.5914 44.9061 87.3993C45.4445 88.8195 46.2209 90.103 47.3457 91.0361C48.4962 91.9905 49.9187 92.5 51.579 92.5C53.3909 92.5 54.8326 91.7302 55.8668 90.4428C56.8501 89.2189 57.424 87.5856 57.7576 85.8393C58.4257 82.3414 58.2339 77.8009 57.7286 73.4134C57.243 69.1963 56.4515 64.9927 55.759 61.7572C56.0652 62.1053 56.3855 62.4684 56.7185 62.8446C59.711 66.2255 63.7393 70.6791 67.8713 74.9558C71.9911 79.2199 76.2602 83.3567 79.7251 86.073C81.4381 87.4159 83.061 88.4978 84.4307 89.0376C85.1084 89.3047 85.8771 89.5021 86.6352 89.4134C87.4924 89.3131 88.2408 88.8527 88.6849 88.0395C89.0888 87.3 89.1303 86.4862 89.0269 85.7553C88.9232 85.0228 88.659 84.2581 88.3106 83.4973C87.6137 81.9755 86.4654 80.2265 85.0659 78.3802C82.2556 74.6728 78.2378 70.3222 74.1635 66.1947C70.0801 62.058 65.9018 58.1072 62.7473 55.193C62.5307 54.9929 62.3189 54.7977 62.1123 54.6076C65.1891 55.3549 69.1112 56.1777 73.0497 56.6481C77.2881 57.1543 81.7188 57.2756 85.1527 56.3405C86.8835 55.8692 88.4773 55.099 89.6477 53.8633C90.8504 52.5935 91.5 50.9425 91.5 48.9487C91.5 46.9393 90.8212 45.276 89.5906 43.9901C88.3942 42.74 86.7645 41.9366 84.9864 41.4235C81.4527 40.4038 76.881 40.405 72.4917 40.7983C68.9571 41.115 65.4345 41.697 62.4835 42.2798C66.0715 39.716 70.7239 36.2898 75.2097 32.6861C79.7982 28.9999 84.2757 25.078 87.2533 21.6774C88.7298 19.991 89.9282 18.3325 90.549 16.823C91.1621 15.3321 91.3742 13.5089 90.0074 12.1438C88.7483 10.8863 86.9359 11.2298 85.6297 11.7074C84.1812 12.237 82.4971 13.2342 80.7229 14.4751C77.1509 16.9734 72.8713 20.7052 68.7844 24.5308C64.6859 28.3672 60.735 32.3415 57.8116 35.3535C57.4407 35.7357 57.0862 36.1024 56.75 36.4516C57.3659 33.4046 58.0587 29.3866 58.4023 25.352C58.7514 21.2531 58.7555 16.9814 57.8578 13.677C57.407 12.0173 56.6968 10.4795 55.5756 9.34152C54.4141 8.16279 52.8941 7.5 51.0527 7.5C49.047 7.5 47.3727 8.16811 46.0514 9.36611C44.7622 10.535 43.8887 12.134 43.2952 13.8925C42.1159 17.3863 41.9108 21.9112 42.1072 26.2586C42.295 30.416 42.8587 34.5567 43.3963 37.7512C43.1994 37.5119 42.9964 37.2657 42.7877 37.0131C40.1097 33.7723 36.4799 29.4735 32.6811 25.2531C28.8905 21.0419 24.898 16.8708 21.5001 13.907C19.8085 12.4316 18.2066 11.2039 16.8128 10.4254C16.1174 10.037 15.4106 9.72417 14.7258 9.56903C14.048 9.41548 13.2416 9.38415 12.4878 9.76058L12.2701 9.86928L12.0979 10.0412C11.4722 10.6661 11.2711 11.4648 11.2774 12.1945C11.2834 12.8995 11.4784 13.63 11.7487 14.3287C12.2909 15.7306 13.2847 17.3746 14.5152 19.1156C16.9926 22.6212 20.6667 26.8477 24.4275 30.8951C28.1983 34.9533 32.0971 38.8749 35.0502 41.7792Z" fill="#F9E2A9" stroke="#FBF2D7" stroke-width="3"/>
<path d="M44.4924 41.9009C44.628 42.2753 44.7584 42.6334 44.8828 42.9732C44.4154 42.7233 43.9107 42.4545 43.3739 42.1702C40.3496 40.5682 36.3043 38.4707 32.2319 36.4953C28.1718 34.5259 24.0375 32.6546 20.8512 31.5232C19.277 30.9643 17.8321 30.5483 16.708 30.4235C16.163 30.3629 15.5317 30.35 14.957 30.5346C14.2934 30.7477 13.6199 31.2729 13.4542 32.1961C13.2992 33.06 13.7623 33.7501 14.0293 34.0887C14.3499 34.4953 14.7854 34.8872 15.2529 35.2542C16.1997 35.9974 17.5327 36.8342 19.0746 37.7101C22.1743 39.4709 26.3312 41.5085 30.4701 43.4333C34.6169 45.3618 38.7776 47.1918 41.8994 48.5388C42.3679 48.7409 42.8132 48.9322 43.2316 49.1114C42.8321 49.2316 42.4095 49.3596 41.9665 49.4948C38.7899 50.4646 34.5598 51.8095 30.361 53.3061C26.1761 54.7978 21.9666 56.4596 18.8584 58.068C17.3158 58.8662 15.9593 59.694 15.0072 60.53C14.5321 60.9472 14.0898 61.4246 13.7905 61.9647C13.483 62.5197 13.2828 63.2289 13.4754 63.9993C13.6675 64.7678 14.1184 65.3863 14.7672 65.7972C15.3742 66.1816 16.0721 66.3342 16.7302 66.3787C18.0281 66.4664 19.616 66.1591 21.2706 65.6795C24.6242 64.7075 28.8673 62.8377 32.9585 60.8719C35.8685 59.4737 38.7594 57.9983 41.247 56.7286C42.265 56.209 43.2155 55.7239 44.0721 55.2926C44.8286 54.9118 45.5059 54.576 46.0927 54.2942C45.621 55.8573 44.9817 57.6283 44.2398 59.5278C43.3098 61.9088 42.2445 64.4282 41.1897 66.9226C40.9056 67.5942 40.6224 68.2641 40.3427 68.9289C39.0345 72.0391 37.8011 75.0499 36.9926 77.5259C36.5889 78.7623 36.2746 79.9143 36.1154 80.9078C35.9665 81.8363 35.9051 82.8889 36.2649 83.7589C36.3768 84.0294 36.5697 84.3779 36.9155 84.654C37.3027 84.9632 37.7814 85.0996 38.2638 85.0499C38.694 85.0056 39.0351 84.8242 39.2638 84.6692C39.5011 84.5085 39.7078 84.3144 39.883 84.1259C40.5476 83.4111 41.262 82.2191 41.9738 80.8594C43.4341 78.0699 45.1844 73.9756 46.8565 69.7997C48.5342 65.6099 50.1532 61.287 51.3517 58.0147C51.6091 57.3119 51.8472 56.6573 52.0625 56.0625C52.2743 56.5376 52.5046 57.0521 52.7511 57.5997C54.095 60.5866 55.9217 64.5659 57.8483 68.5261C59.7709 72.4779 61.8096 76.4448 63.5761 79.3912C64.4543 80.856 65.2982 82.1244 66.0528 83.0202C66.4254 83.4625 66.8284 83.8774 67.251 84.1776C67.6191 84.4392 68.3202 84.8419 69.1632 84.6472C70.1923 84.4095 70.5625 83.5327 70.6632 82.9787C70.7598 82.4472 70.7019 81.867 70.6117 81.3553C70.4245 80.2939 69.9801 78.916 69.4026 77.3946C68.2361 74.3216 66.396 70.3308 64.479 66.4049C62.5572 62.4691 60.539 58.5598 59.0026 55.637C58.9024 55.4464 58.8042 55.26 58.7083 55.078C61.2992 56.4185 64.7662 58.1797 68.2731 59.8632C71.7767 61.5452 75.3567 63.1676 78.151 64.2123C79.536 64.7302 80.7993 65.1336 81.791 65.317C82.2745 65.4064 82.8025 65.4652 83.2897 65.4065C83.7344 65.3529 84.5866 65.1362 84.9863 64.2554C85.626 62.8458 85.3274 61.4488 84.6214 60.2769C83.9436 59.1519 82.8393 58.1256 81.5822 57.2021C79.0514 55.343 75.4544 53.5824 71.8696 52.0753C68.2611 50.5583 64.5667 49.258 61.7817 48.3387C61.6995 48.3116 61.6181 48.2848 61.5376 48.2584C61.6149 48.2316 61.693 48.2045 61.7718 48.1771C64.5417 47.2151 68.2308 45.8858 71.8926 44.4211C75.541 42.9617 79.2164 41.3466 81.932 39.8095C83.2793 39.0469 84.471 38.2591 85.3096 37.4718C85.7282 37.0789 86.1211 36.6289 86.387 36.1231C86.6587 35.6063 86.8426 34.9378 86.6607 34.2105C86.4668 33.435 85.936 32.9165 85.3283 32.6352C84.7794 32.3812 84.1701 32.3149 83.6276 32.3149C82.5331 32.3149 81.1685 32.5925 79.7207 32.998C76.7869 33.8196 73.0346 35.3071 69.3803 36.8978C65.7107 38.4951 62.0804 40.2229 59.3712 41.5492C59.093 41.6854 58.8244 41.8175 58.5664 41.9447C58.7804 41.442 59.0097 40.9001 59.2507 40.3257C60.6011 37.1074 62.3266 32.8568 63.8151 28.7523C65.2903 24.6839 66.5779 20.639 66.9947 17.8819C67.1002 17.184 67.1584 16.517 67.1364 15.9238C67.1157 15.3671 67.0201 14.6908 66.6633 14.1164C66.4708 13.8066 66.1929 13.5124 65.8102 13.3092C65.4269 13.1057 65.0221 13.0379 64.6442 13.0544C63.9431 13.085 63.2856 13.4053 62.7299 13.7631C61.8311 14.3417 61.0256 15.345 60.3129 16.4422C59.5752 17.578 58.8336 18.9797 58.1076 20.5235C56.6541 23.614 55.2047 27.3998 53.9234 31.0497C52.7697 34.3359 51.7434 37.5375 50.9634 40.0653C50.1521 37.0015 49.0461 32.9523 47.8489 28.9362C46.6421 24.888 45.3303 20.8318 44.1252 17.8484C43.5282 16.3702 42.9267 15.0775 42.3446 14.1714C42.0613 13.7304 41.7169 13.2752 41.3024 12.9475C40.8944 12.6249 40.1061 12.2034 39.1914 12.5817C38.4583 12.8849 38.0442 13.4837 37.8215 14.0285C37.6038 14.5613 37.5151 15.1612 37.4857 15.7406C37.4266 16.9058 37.5929 18.3687 37.8791 19.9523C38.4564 23.1454 39.5924 27.1967 40.8319 31.1392C42.0755 35.0949 43.4401 38.9941 44.4924 41.9009Z" fill="#C08C14" stroke="#FFC42D" stroke-width="3"/>
</g>
<defs>
<filter id="filter0_d_301_505" x="-6" y="0" width="112" height="113" filterUnits="userSpaceOnUse" color-interpolation-filters="sRGB">
<feFlood flood-opacity="0" result="BackgroundImageFix"/>
<feColorMatrix in="SourceAlpha" type="matrix" values="0 0 0 0 0 0 0 0 0 0 0 0 0 0 0 0 0 0 127 0" result="hardAlpha"/>
<feOffset dy="7"/>
<feGaussianBlur stdDeviation="3"/>
<feComposite in2="hardAlpha" operator="out"/>
<feColorMatrix type="matrix" values="0 0 0 0 0 0 0 0 0 0 0 0 0 0 0 0 0 0 0.25 0"/>
<feBlend mode="normal" in2="BackgroundImageFix" result="effect1_dropShadow_301_505"/>
<feBlend mode="normal" in="SourceGraphic" in2="effect1_dropShadow_301_505" result="shape"/>
</filter>
</defs>
</svg>
