<svg width="101" height="106" viewBox="0 0 101 106" fill="none" xmlns="http://www.w3.org/2000/svg">
<g filter="url(#filter0_d_301_504)">
<path d="M36.6467 8.37523C43.092 5.48566 46.9542 30.3421 46.9542 30.3421C46.9542 30.3421 46.5426 9.73582 52.6184 8.20239C63.3499 5.49396 53.9348 30.8641 53.9348 30.8641C53.9348 30.8641 61.9924 9.40453 68.7375 13.9193C75.4826 18.434 51.4816 53.7549 51.4816 53.7549C51.4816 53.7549 93.8736 50.8124 94.4821 57.8496C95.0906 64.8867 70.347 60.3572 70.347 60.3572C70.347 60.3572 89.9419 66.7471 89.3913 72.9892C88.4188 84.0143 67.5577 66.7775 67.5577 66.7775C67.5577 66.7775 85.1724 81.446 78.69 86.3306C72.2077 91.2151 48.9816 56.7549 48.9816 56.7549C48.9816 56.7549 31.1364 94.6631 24.5596 92.0866C17.9829 89.51 33.0192 69.344 33.0192 69.344C33.0192 69.344 18.5997 84.0704 13.2497 80.8078C3.80026 75.0452 28.5026 63.996 28.5026 63.996C28.5026 63.996 7.54218 73.2751 6.04033 65.2986C4.53848 57.3221 45.4816 53.7549 45.4816 53.7549C45.4816 53.7549 30.2014 11.2648 36.6467 8.37523Z" fill="#F99731"/>
<path d="M54.0387 52.9479C54.0387 52.9479 84.9641 59.0081 85.0193 49.8837C85.0943 37.4909 53.8843 48.4509 53.8843 48.4509C53.8843 48.4509 79.1201 25.7871 68.5165 20.9327C60.3841 17.2097 50.1302 46.9297 50.1302 46.9297C50.1302 46.9297 43.8418 16.2611 35.4674 20.066C25.939 24.3952 45.4567 48.7401 45.4567 48.7401C45.4567 48.7401 15.0971 38.7755 15.5087 50.7681C15.886 61.762 45.6111 53.2371 45.6111 53.2371C45.6111 53.2371 28.3762 75.8418 36.0434 80.5816C46.7773 87.2174 50.4097 55.074 50.4097 55.074C50.4097 55.074 61.717 85.2038 70.4716 77.8992C79.2263 70.5946 54.0387 52.9479 54.0387 52.9479Z" fill="white"/>
<path d="M49.1966 52.8381C49.1966 52.8381 43.764 85.7419 51.4264 80.6562C59.0888 75.5706 51.4264 52.8381 51.4264 52.8381C51.4264 52.8381 77.9223 70.5311 78.2552 65.1562C78.8499 55.557 52.2552 51.1562 52.2552 51.1562C52.2552 51.1562 83.6537 37.0889 76.2552 31.6563C71.8702 28.4363 51.4264 49.3625 51.4264 49.3625C51.4264 49.3625 59.5977 17.2038 49.5409 17.533C39.4841 17.8623 49.5789 49.3549 49.5789 49.3549C49.5789 49.3549 33.8608 27.3211 25.1211 30.189C16.3813 33.0568 47.2552 50.6563 47.2552 50.6563C47.2552 50.6563 24.3813 59.8381 23.7555 68.1562C23.1297 76.4743 48.7843 51.927 48.7843 51.927" stroke="#FFD95B" stroke-width="2"/>
</g>
<defs>
<filter id="filter0_d_301_504" x="-6" y="0" width="112" height="113" filterUnits="userSpaceOnUse" color-interpolation-filters="sRGB">
<feFlood flood-opacity="0" result="BackgroundImageFix"/>
<feColorMatrix in="SourceAlpha" type="matrix" values="0 0 0 0 0 0 0 0 0 0 0 0 0 0 0 0 0 0 127 0" result="hardAlpha"/>
<feOffset dy="7"/>
<feGaussianBlur stdDeviation="3"/>
<feComposite in2="hardAlpha" operator="out"/>
<feColorMatrix type="matrix" values="0 0 0 0 0 0 0 0 0 0 0 0 0 0 0 0 0 0 0.25 0"/>
<feBlend mode="normal" in2="BackgroundImageFix" result="effect1_dropShadow_301_504"/>
<feBlend mode="normal" in="SourceGraphic" in2="effect1_dropShadow_301_504" result="shape"/>
</filter>
</defs>
</svg>
