<svg width="106" height="110" viewBox="0 0 106 110" fill="none" xmlns="http://www.w3.org/2000/svg">
<g filter="url(#filter0_d_301_497)">
<path d="M36.5582 93.004C42.0582 96.5397 54.0581 54.0039 54.0581 54.0039C54.0581 54.0039 47.1946 106.183 57.0581 95.004C64.5581 86.504 56.5581 54.5039 56.5581 54.5039C56.5581 54.5039 69.0581 98.5039 77.0581 92.5039C87.0581 85.0039 59.0581 54.0039 59.0581 54.0039C59.0581 54.0039 80.5581 77.5039 92.0581 77.0039C103.558 76.5039 61.5581 52.0039 61.5581 52.0039C61.5581 52.0039 96.0581 68.2302 97.5581 59.5039C99.0581 50.7777 62.5581 49.2361 62.5581 49.2361C62.5581 49.2361 99.0581 51.1413 99.0581 44.7152C99.0581 34.6218 62.5581 46.0039 62.5581 46.0039C62.5581 46.0039 97.5581 33.5039 92.0581 24.134C86.5581 14.764 61.5581 43.5039 61.5581 43.5039C61.5581 43.5039 86.5839 16.8989 80.5581 13.0039C69.4824 5.84468 59.0581 42.7083 59.0581 42.7083C59.0581 42.7083 69.5581 6.00381 61.0466 5.00381C52.5351 4.00381 55.0581 42.0038 55.0581 42.0038C55.0581 42.0038 51.4277 3.56894 47.0581 4.00366C34.112 5.29162 52.2838 42.7083 52.2838 42.7083C52.2838 42.7083 33.0581 8.00395 26.5581 14.0039C19.0581 20.9271 49.5581 44.5039 49.5581 44.5039C49.5581 44.5039 14.7302 21.997 12.0582 30.0039C10.0582 35.997 49.0582 46.5039 49.0582 46.5039C49.0582 46.5039 -3.62516 40.5166 7.55811 48.5039C14.1197 53.1904 49.5581 48.5039 49.5581 48.5039C49.5581 48.5039 8.05815 57.0039 11.0582 65.0039C13.3472 71.1081 50.5582 51.0039 50.5582 51.0039C50.5582 51.0039 12.0582 75.7182 20.5582 83.004C24.0582 86.004 52.0582 54.0039 52.0582 54.0039C52.0582 54.0039 29.5582 88.504 36.5582 93.004Z" fill="white"/>
<path d="M20.9328 71.1266C22.8916 76.2541 52.1834 53.2842 52.1834 53.2842C52.1834 53.2842 21.5639 85.3527 33.7993 82.6394C43.1027 80.5762 53.6249 54.8622 53.6249 54.8622C53.6249 54.8622 40.1712 90.9618 48.568 90.8456C59.0641 90.7004 55.5644 55.7606 55.5644 55.7606C55.5644 55.7606 58.4028 82.383 66.4281 87.7389C74.4534 93.0947 58.2506 55.6393 58.2506 55.6393C58.2506 55.6393 73.5011 83.7561 78.86 78.5675C84.2188 73.3788 60.3049 54.2531 60.3049 54.2531C60.3049 54.2531 84.0378 73.626 87.2372 69.2579C92.2624 62.397 61.9141 52.0561 61.9141 52.0561C61.9141 52.0561 91.8046 60.8942 92.7505 51.801C93.6964 42.7078 62.4826 49.8615 62.4826 49.8615C62.4826 49.8615 92.6509 44.1718 90.5155 38.5398C86.5904 28.1877 61.1882 48.0824 61.1882 48.0824C61.1882 48.0824 86.5624 28.3334 81.3048 23.4381C76.0471 18.5427 58.8341 45.6225 58.8341 45.6225C58.8341 45.6225 75.5148 17.6987 72.3436 15.83C62.9482 10.2935 56.6074 44.7273 56.6074 44.7273C56.6074 44.7273 60.8852 11.6152 53.5026 12.4743C44.9842 13.4656 53.8702 44.5979 53.8702 44.5979C53.8702 44.5979 41.525 12.0494 35.7317 16.1686C31.3955 19.2518 52.5364 45.7097 52.5364 45.7097C52.5364 45.7097 19.8927 15.5468 23.4782 26.515C25.5819 32.9504 51.8788 47.3168 51.8788 47.3168C51.8788 47.3168 19.5844 32.5405 17.63 39.4642C16.1388 44.7472 51.3103 49.5115 51.3103 49.5115C51.3103 49.5115 12.9719 47.2425 15.0923 56.4047C15.9654 60.1774 50.831 52.2936 50.831 52.2936C50.831 52.2936 18.4398 64.6008 20.9328 71.1266Z" fill="#FFD64E"/>
<path d="M29.9708 70.2431C32.0849 74.031 52.3872 52.7402 52.3872 52.7402C52.3872 52.7402 32.0795 81.2981 41.341 77.7868C48.3833 75.117 53.6938 53.8108 53.6938 53.8108C53.6938 53.8108 47.2695 83.5727 53.8237 82.5285C62.0165 81.2233 55.3127 54.2932 55.3127 54.2932C55.3127 54.2932 60.5551 74.7932 67.4399 78.0711C74.3248 81.3489 57.4 53.8934 57.4 53.8934C57.4 53.8934 72.5198 74.1531 76.1221 69.4865C79.7243 64.8199 58.8493 52.576 58.8493 52.576C58.8493 52.576 79.6108 65.0338 81.6172 61.2542C84.7687 55.3176 59.8584 50.675 59.8584 50.675C59.8584 50.675 84.2401 54.1942 83.9476 46.9747C83.6551 39.7553 60.0539 48.894 60.0539 48.894C60.0539 48.894 83.0036 41.019 80.694 36.8564C76.4488 29.2054 58.8396 47.6495 58.8396 47.6495C58.8396 47.6495 76.4435 29.3225 71.7756 26.0906C67.1076 22.8587 56.7191 45.9927 56.7191 45.9927C56.7191 45.9927 66.5955 22.259 63.9031 21.1574C55.9261 17.8938 54.8759 45.5453 54.8759 45.5453C54.8759 45.5453 54.4626 19.1618 48.786 20.6718C42.2361 22.4142 52.7204 45.7549 52.7204 45.7549C52.7204 45.7549 39.3697 21.6992 35.3063 25.5787C32.2648 28.4824 51.8034 46.7759 51.8034 46.7759C51.8034 46.7759 22.8475 26.8905 26.897 35.062C29.273 39.8565 51.4715 48.1075 51.4715 48.1075C51.4715 48.1075 24.5356 40.2168 23.7931 45.8539C23.2265 50.1551 51.276 49.8886 51.276 49.8886C51.276 49.8886 21.0328 52.4663 23.7314 59.3917C24.8426 62.2433 51.217 52.119 51.217 52.119C51.217 52.119 27.2801 65.4221 29.9708 70.2431Z" fill="#E1B41F"/>
</g>
<defs>
<filter id="filter0_d_301_497" x="-3" y="0" width="112" height="113" filterUnits="userSpaceOnUse" color-interpolation-filters="sRGB">
<feFlood flood-opacity="0" result="BackgroundImageFix"/>
<feColorMatrix in="SourceAlpha" type="matrix" values="0 0 0 0 0 0 0 0 0 0 0 0 0 0 0 0 0 0 127 0" result="hardAlpha"/>
<feOffset dy="7"/>
<feGaussianBlur stdDeviation="3"/>
<feComposite in2="hardAlpha" operator="out"/>
<feColorMatrix type="matrix" values="0 0 0 0 0 0 0 0 0 0 0 0 0 0 0 0 0 0 0.25 0"/>
<feBlend mode="normal" in2="BackgroundImageFix" result="effect1_dropShadow_301_497"/>
<feBlend mode="normal" in="SourceGraphic" in2="effect1_dropShadow_301_497" result="shape"/>
</filter>
</defs>
</svg>
