<svg width="113" height="113" viewBox="0 0 113 113" fill="none" xmlns="http://www.w3.org/2000/svg">
<g filter="url(#filter0_d_301_501)">
<path d="M50.2713 1.93228C59.0484 -2.81715 57.4224 26.3652 57.4224 26.3652C57.4224 26.3652 62.2868 -0.210653 68.5042 0.570916C78.2526 1.79636 59.0443 48.0878 59.0443 48.0878C59.0443 48.0878 89.7406 20.4484 98.1911 25.7572C106.642 31.0659 80.429 43.9949 80.429 43.9949C80.429 43.9949 103.624 36.7014 106 42.5C109.725 51.5917 61.8184 53.6692 61.8184 53.6692C61.8184 53.6692 99.7439 74.7859 96.9852 84.3767C94.2265 93.9674 74.539 72.3652 74.539 72.3652C74.539 72.3652 87.9755 92.6304 83.0626 96.5201C75.3594 102.619 56.5 56.5 56.5 56.5C56.5 56.5 51.7197 98.5978 41.8055 99.7385C31.8913 100.879 44.2641 74.3995 44.2641 74.3995C44.2641 74.3995 30.7223 94.5946 25.2427 91.5546C16.6512 86.7883 51.5 53 51.5 53C51.5 53 10.3488 59.8642 6.50499 50.6545C2.66122 41.4448 31.5327 45.9939 31.5327 45.9939C31.5327 45.9939 8.37557 38.5798 9.77771 32.4724C11.9762 22.8964 52.9903 48.5398 52.9903 48.5398C52.9903 48.5398 41.4943 6.68171 50.2713 1.93228Z" fill="white"/>
<path d="M73.9546 49.2447C70.8228 49.0826 67.7642 49.1058 65.4895 49.1692C65.7135 49.0245 65.9463 48.8735 66.1869 48.7165C68.499 47.2083 71.5435 45.1471 74.4567 42.9445C77.3564 40.752 80.1796 38.3797 82.0113 36.2488C82.9195 35.1922 83.6518 34.1184 83.9891 33.0967C84.3403 32.0327 84.2942 30.8782 83.402 29.9815C82.7766 29.3529 81.9416 29.2018 81.169 29.254C80.4006 29.3058 79.5631 29.5628 78.7297 29.9137C77.0551 30.6187 75.1456 31.8126 73.3755 33.056C73.2247 33.1619 73.0747 33.2683 72.9255 33.3752C73.0809 33.1385 73.2341 32.9001 73.3841 32.6609C74.5122 30.8624 75.533 28.9045 75.8328 27.2653C75.9833 26.4423 75.9804 25.5513 75.5627 24.7874C75.1181 23.9743 74.3214 23.5126 73.335 23.3464C72.2274 23.1599 71.1399 23.5428 70.1625 24.1536C69.178 24.7688 68.1978 25.6806 67.25 26.7472C65.3517 28.8834 63.4475 31.7971 61.7641 34.6948C60.0751 37.6022 58.5835 40.537 57.5155 42.7415C57.2728 43.2426 57.0517 43.7064 56.8549 44.1241C56.665 43.5729 56.4453 42.9443 56.1998 42.2567C55.2943 39.721 54.0342 36.3723 52.6208 33.1393C51.215 29.9237 49.629 26.7555 48.0615 24.6221C47.2875 23.5686 46.4462 22.6659 45.5529 22.1763C45.0931 21.9243 44.5756 21.7575 44.0226 21.7764C43.4555 21.7958 42.936 22.0078 42.4866 22.3729C41.8481 22.8916 41.5519 23.6339 41.4379 24.3749C41.3243 25.1135 41.3753 25.9422 41.513 26.782C41.7887 28.4644 42.4507 30.4101 43.1843 32.2202C43.2947 32.4925 43.4072 32.763 43.5209 33.0302C43.0504 32.5727 42.5636 32.1167 42.0709 31.6784C40.5165 30.2958 38.7928 28.9893 37.2792 28.4516C36.5198 28.1819 35.6511 28.0468 34.8483 28.3743C33.9964 28.7218 33.4788 29.478 33.2199 30.4227C32.9442 31.4287 33.0729 32.4992 33.4098 33.5371C33.7479 34.5787 34.3179 35.657 35.0174 36.726C36.4161 38.8633 38.4176 41.091 40.4338 43.0928C42.4568 45.1014 44.5277 46.9148 46.0899 48.2242C46.3944 48.4795 46.6799 48.7158 46.9423 48.931C46.4369 49.0176 45.8612 49.1193 45.2312 49.2357C42.8809 49.6697 39.7627 50.3094 36.7127 51.1302C33.6814 51.9458 30.6428 52.9595 28.4946 54.1619C27.4284 54.7586 26.4878 55.4524 25.8996 56.2693C25.2754 57.1364 25.0332 58.1799 25.4962 59.2709C25.8136 60.0185 26.4161 60.5007 27.0853 60.7978C27.7423 61.0895 28.5139 61.2281 29.3034 61.2805C30.8836 61.3852 32.7773 61.1574 34.5525 60.8297C34.9026 60.7651 35.2506 60.6961 35.5934 60.6242C34.9527 61.1016 34.3023 61.6103 33.6768 62.1365C32.1157 63.4498 30.6013 64.96 29.844 66.4297C29.4611 67.1727 29.2144 68.0148 29.3675 68.8673C29.5279 69.7612 30.0918 70.4758 30.9444 70.9966C31.8797 71.5679 32.987 71.6583 34.0894 71.5011C35.1938 71.3435 36.3874 70.9251 37.5975 70.3604C40.0195 69.23 42.6867 67.4271 45.1405 65.5578C47.6034 63.6815 49.8925 61.7062 51.5632 60.203C51.812 59.9792 52.0472 59.7657 52.2675 59.5643C52.2165 60.0106 52.1626 60.5009 52.1077 61.0277C51.8441 63.5573 51.556 66.9383 51.4618 70.3253C51.3681 73.6956 51.4637 77.1394 51.9938 79.7648C52.2574 81.07 52.6448 82.2621 53.2339 83.1499C53.8416 84.0659 54.7337 84.7447 55.9405 84.7365C56.828 84.7305 57.5041 84.2494 57.979 83.6472C58.4412 83.0611 58.7759 82.2903 59.0296 81.4731C59.5398 79.8298 59.8116 77.6987 59.9562 75.6406C59.9752 75.3708 59.992 75.101 60.0069 74.8326C60.2151 75.4624 60.438 76.0994 60.6749 76.7274C61.4822 78.8683 62.4906 81.0171 63.6863 82.4058C64.285 83.1011 65.0098 83.7 65.8709 83.9383C66.7911 84.1929 67.715 83.9947 68.5609 83.3807C69.4991 82.6997 69.9346 81.6176 70.0984 80.4744C70.2629 79.3262 70.176 77.9776 69.9408 76.5515C69.4693 73.6927 68.3598 70.2852 67.1137 67.0481C65.8632 63.7995 64.4555 60.6726 63.3625 58.3612C63.3181 58.2674 63.2743 58.1749 63.231 58.0838C63.3564 58.1701 63.4847 58.2582 63.6157 58.3477C65.7882 59.8334 68.7096 61.7575 71.6897 63.4986C74.6533 65.2299 77.7387 66.8185 80.223 67.5922C81.4504 67.9745 82.6479 68.1965 83.6518 68.0572C84.1686 67.9854 84.679 67.8118 85.1111 67.473C85.5529 67.1264 85.85 66.6558 86.0056 66.1024C86.2255 65.3201 86.0552 64.5599 85.7257 63.901C85.4002 63.2502 84.8907 62.6356 84.3098 62.0708C83.1468 60.9401 81.5299 59.85 79.9384 58.9126C79.771 58.814 79.6033 58.7167 79.4358 58.621C79.9764 58.6768 80.5243 58.7233 81.0682 58.7561C83.0413 58.8753 85.1154 58.8267 86.5948 58.2887C87.3448 58.0159 88.0774 57.5687 88.4959 56.8184C88.9319 56.0365 88.9127 55.1359 88.5809 54.2184C88.2088 53.1896 87.398 52.4175 86.4367 51.8346C85.4713 51.2493 84.2687 50.8016 82.9568 50.4529C80.3311 49.7551 77.0814 49.4065 73.9546 49.2447Z" fill="#FFD95B" stroke="#F7CD46" stroke-width="2"/>
</g>
<defs>
<filter id="filter0_d_301_501" x="0" y="0.553711" width="112.206" height="113.446" filterUnits="userSpaceOnUse" color-interpolation-filters="sRGB">
<feFlood flood-opacity="0" result="BackgroundImageFix"/>
<feColorMatrix in="SourceAlpha" type="matrix" values="0 0 0 0 0 0 0 0 0 0 0 0 0 0 0 0 0 0 127 0" result="hardAlpha"/>
<feOffset dy="7"/>
<feGaussianBlur stdDeviation="3"/>
<feComposite in2="hardAlpha" operator="out"/>
<feColorMatrix type="matrix" values="0 0 0 0 0 0 0 0 0 0 0 0 0 0 0 0 0 0 0.25 0"/>
<feBlend mode="normal" in2="BackgroundImageFix" result="effect1_dropShadow_301_501"/>
<feBlend mode="normal" in="SourceGraphic" in2="effect1_dropShadow_301_501" result="shape"/>
</filter>
</defs>
</svg>
