<svg width="106" height="110" viewBox="0 0 106 110" fill="none" xmlns="http://www.w3.org/2000/svg">
<g filter="url(#filter0_d_301_506)">
<path d="M36.5582 93.004C42.0582 96.5397 54.0581 54.0039 54.0581 54.0039C54.0581 54.0039 47.1946 106.183 57.0581 95.004C64.5581 86.504 56.5581 54.5039 56.5581 54.5039C56.5581 54.5039 69.0581 98.5039 77.0581 92.5039C87.0581 85.0039 59.0581 54.0039 59.0581 54.0039C59.0581 54.0039 80.5581 77.5039 92.0581 77.0039C103.558 76.5039 61.5581 52.0039 61.5581 52.0039C61.5581 52.0039 96.0581 68.2302 97.5581 59.5039C99.0581 50.7777 62.5581 49.2361 62.5581 49.2361C62.5581 49.2361 99.0581 51.1413 99.0581 44.7152C99.0581 34.6218 62.5581 46.0039 62.5581 46.0039C62.5581 46.0039 97.5581 33.5039 92.0581 24.134C86.5581 14.764 61.5581 43.5039 61.5581 43.5039C61.5581 43.5039 86.5839 16.8989 80.5581 13.0039C69.4824 5.84468 59.0581 42.7083 59.0581 42.7083C59.0581 42.7083 69.5581 6.00381 61.0466 5.00381C52.5351 4.00381 55.0581 42.0038 55.0581 42.0038C55.0581 42.0038 51.4277 3.56894 47.0581 4.00366C34.112 5.29162 52.2838 42.7083 52.2838 42.7083C52.2838 42.7083 33.0581 8.00395 26.5581 14.0039C19.0581 20.9271 49.5581 44.5039 49.5581 44.5039C49.5581 44.5039 14.7302 21.997 12.0582 30.0039C10.0582 35.997 49.0582 46.5039 49.0582 46.5039C49.0582 46.5039 -3.62516 40.5166 7.55811 48.5039C14.1197 53.1904 49.5581 48.5039 49.5581 48.5039C49.5581 48.5039 8.05815 57.0039 11.0582 65.0039C13.3472 71.1081 50.5582 51.0039 50.5582 51.0039C50.5582 51.0039 12.0582 75.7182 20.5582 83.004C24.0582 86.004 52.0582 54.0039 52.0582 54.0039C52.0582 54.0039 29.5582 88.504 36.5582 93.004Z" fill="#F4AE16"/>
<path d="M56.6875 19.1318C56.6875 19.1318 49.5024 13.4112 47.8177 17.433C46.1329 21.4548 50.8787 46.0508 50.8787 46.0508C50.8787 46.0508 36.9326 23.2383 32.5523 22.2722C28.3294 21.3408 27.7937 29.0429 27.7937 29.0429C27.7937 29.0429 19.1955 32.2786 21.7911 35.7835C24.3867 39.2884 49.1385 48.3406 49.1385 48.3406C49.1385 48.3406 23.4135 45.8062 20.0042 48.7184C16.7174 51.5259 22.5515 56.59 22.5515 56.59C22.5515 56.59 19.9616 65.3959 24.3258 65.4357C28.6901 65.4755 50.4498 51.7894 50.4498 51.7894C50.4498 51.7894 31.4004 69.8754 31.3212 74.3557C31.2449 78.6749 38.9084 77.6717 38.9084 77.6717C38.9084 77.6717 43.7886 85.4482 46.7128 82.2118C49.6371 78.9754 53.255 53.4497 53.255 53.4497C53.255 53.4497 55.7197 79.5655 59.2808 82.2904C62.714 84.9173 66.4581 78.163 66.4581 78.163C66.4581 78.163 75.6197 78.8604 74.7502 74.5881C73.8807 70.3158 56.4264 52.6863 56.4264 52.6863C56.4264 52.6863 76.9406 66.8449 81.344 65.9897C85.5891 65.1652 83.0116 57.8865 83.0116 57.8865C83.0116 57.8865 89.6102 51.4997 85.8325 49.3163C83.3938 47.9068 66.5672 49.7045 58.7223 49.7467C66.4155 47.3314 83.8791 41.1815 85.3647 38.5376C87.4814 34.7705 80.2575 32.0253 80.2575 32.0253C80.2575 32.0253 79.6504 22.8672 75.5398 24.3324C71.4292 25.7976 55.3866 46.387 55.3866 46.387C55.3866 46.387 66.3584 24.0009 64.9462 19.7478C63.5847 15.6475 56.6875 19.1318 56.6875 19.1318Z" fill="white"/>
<path d="M47.8712 53.4909L46.4675 52.154C46.4673 52.1537 46.4673 52.1537 46.4673 52.1537L46.4672 52.1537L46.4669 52.1539L46.4649 52.1552L46.4554 52.1611L46.4155 52.1859C46.3797 52.2082 46.3257 52.2415 46.2546 52.285C46.1123 52.372 45.9017 52.4993 45.6317 52.6587C45.0915 52.9777 44.3145 53.4246 43.3717 53.9335C41.4822 54.9534 38.9452 56.2123 36.3249 57.1908C33.6816 58.1778 31.0562 58.8395 28.9562 58.7538C27.9173 58.7114 27.0667 58.488 26.4127 58.0845C25.7763 57.6921 25.2648 57.0926 24.9445 56.1717C24.793 55.736 24.8511 55.3411 25.1539 54.8945C25.4862 54.4043 26.1052 53.8778 27.0283 53.3439C28.8666 52.2808 31.5745 51.3764 34.4389 50.6441C37.2836 49.9169 40.2035 49.3788 42.4182 49.0221C43.524 48.8439 44.4507 48.7116 45.1 48.6239C45.4246 48.58 45.6797 48.5474 45.853 48.5257C45.9397 48.5149 46.0059 48.5069 46.05 48.5015L46.0996 48.4956L46.1117 48.4942L46.1145 48.4939L46.115 48.4938L45.9999 47.5005L46.1151 48.4938L49.2419 48.1314L46.4792 46.6228L46.4787 46.6226L46.4764 46.6213L46.4662 46.6157L46.424 46.5925C46.3864 46.5717 46.3301 46.5405 46.2564 46.4994C46.1089 46.417 45.8918 46.2949 45.6161 46.1372C45.0645 45.8216 44.2784 45.3636 43.3444 44.7959C41.4739 43.6591 39.0207 42.089 36.6707 40.347C34.3079 38.5955 32.1051 36.7106 30.6928 34.9497C29.9859 34.0683 29.5205 33.2708 29.308 32.5822C29.1018 31.9138 29.1467 31.4026 29.3775 30.9801C29.5681 30.6314 29.8518 30.4492 30.3937 30.4343C31.0032 30.4176 31.8551 30.6297 32.9332 31.106C35.0709 32.0506 37.7053 33.8529 40.3089 35.8883C42.8968 37.9116 45.3942 40.1171 47.2483 41.8209C48.1743 42.6718 48.9376 43.3955 49.4688 43.9059C49.7344 44.1611 49.9418 44.3628 50.0825 44.5004C50.1528 44.5692 50.2065 44.6219 50.2423 44.6572L50.2826 44.6969L50.2924 44.7067L50.2947 44.709L50.2952 44.7095L50.9999 44L50.2953 44.7096L52.2277 46.6285L51.9963 43.9151L51.9963 43.915L51.9963 43.9145L51.9961 43.9119L51.9951 43.9002L51.9911 43.8516C51.9876 43.8083 51.9825 43.7433 51.9761 43.6581C51.9633 43.4876 51.9452 43.2364 51.9248 42.9161C51.8838 42.2755 51.8332 41.3594 51.7945 40.2619C51.717 38.0637 51.6882 35.1527 51.8794 32.2755C52.0719 29.3772 52.4828 26.6011 53.244 24.6264C53.6247 23.6389 54.0626 22.9335 54.5324 22.5041C54.9703 22.1038 55.4429 21.9315 56.0269 21.9948C56.6078 22.0577 57.0501 22.3325 57.418 22.8409C57.8088 23.3811 58.1127 24.1884 58.3076 25.2573C58.6972 27.3947 58.5961 30.2512 58.2596 33.1771C57.9254 36.083 57.3694 38.9746 56.895 41.1458C56.6581 42.2298 56.4423 43.1306 56.286 43.7594C56.2079 44.0738 56.1447 44.32 56.1012 44.4869C56.0795 44.5703 56.0627 44.6339 56.0514 44.6763L56.0387 44.7237L56.0356 44.7352L56.0349 44.7378L56.0348 44.7383L55.0419 48.4L57.7107 45.7034L56.9999 45L57.7107 45.7034L57.7112 45.7029L57.7133 45.7008L57.7226 45.6914L57.7607 45.6532C57.7946 45.6192 57.8455 45.5684 57.9123 45.5021C58.0458 45.3694 58.2429 45.1749 58.4955 44.9289C59.0007 44.437 59.7273 43.7399 60.6102 42.922C62.3782 41.2841 64.7631 39.171 67.247 37.252C69.7479 35.3198 72.2816 33.6379 74.3566 32.806C75.3999 32.3877 76.2283 32.2257 76.8318 32.2805C77.3711 32.3295 77.7239 32.5435 77.9754 32.9907C78.2347 33.4516 78.2633 33.9777 77.9913 34.6591C77.7065 35.3727 77.1101 36.1936 76.2122 37.0936C74.422 38.8881 71.6707 40.7653 68.7386 42.4875C65.8217 44.2007 62.7887 45.7244 60.4799 46.8217C59.3268 47.3697 58.3571 47.81 57.6766 48.113C57.3364 48.2644 57.0686 48.3814 56.8864 48.4604C56.7953 48.4998 56.7257 48.5298 56.6791 48.5497L56.6268 48.572L56.614 48.5775L56.611 48.5787L56.6104 48.579L56.9999 49.5L56.6103 48.579L57.0585 50.4978L57.0586 50.4983L57.0587 50.4983L57.0591 50.4983L57.0618 50.4981L57.0741 50.4974L57.1255 50.4946C57.1716 50.4922 57.2409 50.4887 57.3318 50.4845C57.5138 50.4762 57.7822 50.4652 58.1246 50.4546C58.8095 50.4334 59.789 50.4141 60.9621 50.4219C63.3126 50.4373 66.421 50.5612 69.4863 50.9903C72.5732 51.4225 75.5182 52.1517 77.6034 53.3247C79.6592 54.4811 80.7005 55.9441 80.5049 57.9005C80.4254 58.6957 80.1255 59.1069 79.7445 59.353C79.3125 59.632 78.6293 59.7919 77.6461 59.7575C75.676 59.6885 73.0144 58.8631 70.2559 57.721C67.5265 56.591 64.8119 55.1983 62.7726 54.0832C61.7548 53.5267 60.9091 53.0414 60.3187 52.6958C60.0235 52.5231 59.7924 52.3853 59.6357 52.2911C59.5573 52.244 59.4976 52.2079 59.4577 52.1836L59.4131 52.1564L59.4023 52.1498L59.3998 52.1483L59.3993 52.148L58.0368 53.5443L58.0372 53.5448L58.0387 53.5472L58.0455 53.5576L58.0733 53.6008C58.098 53.6393 58.135 53.697 58.1832 53.7729C58.2796 53.9246 58.4208 54.1486 58.5987 54.4353C58.9545 55.009 59.4566 55.8332 60.0392 56.832C61.206 58.8323 62.6887 61.5209 63.9672 64.2937C65.2538 67.0841 66.2988 69.8868 66.6403 72.1346C66.8113 73.26 66.7923 74.1639 66.5995 74.8292C66.4176 75.457 66.0904 75.8569 65.5809 76.092C65.0997 76.3141 64.6076 76.2946 64.0157 75.9862C63.3846 75.6574 62.6828 75.0143 61.9372 74.0573C60.4512 72.1499 59.0079 69.2816 57.735 66.2391C56.4694 63.2141 55.4014 60.0884 54.6485 57.7135C54.2725 56.5274 53.9761 55.5316 53.774 54.8333C53.6729 54.4842 53.5955 54.2096 53.5434 54.0228C53.5174 53.9295 53.4978 53.8581 53.4847 53.8104L53.4701 53.7568L53.4666 53.7438L53.4657 53.7407L53.4656 53.7401L52.4999 54L53.4656 53.74L51.5266 53.7716L51.5264 53.7715L51.5264 53.7716L51.5263 53.772L51.5258 53.7742L51.5234 53.7843L51.5133 53.8266C51.5042 53.8644 51.4905 53.9212 51.4721 53.996C51.4354 54.1454 51.3804 54.3661 51.3076 54.6482C51.162 55.2126 50.9457 56.022 50.664 56.9978C50.0998 58.9515 49.2761 61.5613 48.2357 64.2005C47.1918 66.8484 45.9466 69.4823 44.5508 71.5083C43.1222 73.5818 41.6889 74.7939 40.3397 75.0129C40.012 75.0661 39.8407 75.0299 39.7649 75.0003C39.708 74.9781 39.6612 74.9449 39.6104 74.8541C39.4693 74.6024 39.375 74.0342 39.5077 73.0233C39.7645 71.0685 40.7491 68.267 42.0037 65.3251C43.2468 62.4102 44.7133 59.4516 45.8723 57.2164C46.4511 56.1001 46.9518 55.167 47.3074 54.5137C47.4851 54.187 47.6266 53.9304 47.7234 53.7559C47.7718 53.6687 47.809 53.602 47.8339 53.5573L47.8621 53.507L47.8691 53.4946L47.8707 53.4916L47.8711 53.491C47.8712 53.4909 47.8712 53.4909 46.9999 53L47.8712 53.4909Z" stroke="#FFD95B" stroke-width="2"/>
</g>
<defs>
<filter id="filter0_d_301_506" x="-3" y="0" width="112" height="113" filterUnits="userSpaceOnUse" color-interpolation-filters="sRGB">
<feFlood flood-opacity="0" result="BackgroundImageFix"/>
<feColorMatrix in="SourceAlpha" type="matrix" values="0 0 0 0 0 0 0 0 0 0 0 0 0 0 0 0 0 0 127 0" result="hardAlpha"/>
<feOffset dy="7"/>
<feGaussianBlur stdDeviation="3"/>
<feComposite in2="hardAlpha" operator="out"/>
<feColorMatrix type="matrix" values="0 0 0 0 0 0 0 0 0 0 0 0 0 0 0 0 0 0 0.25 0"/>
<feBlend mode="normal" in2="BackgroundImageFix" result="effect1_dropShadow_301_506"/>
<feBlend mode="normal" in="SourceGraphic" in2="effect1_dropShadow_301_506" result="shape"/>
</filter>
</defs>
</svg>
