<svg width="101" height="101" viewBox="0 0 101 101" fill="none" xmlns="http://www.w3.org/2000/svg">
<path d="M44.2713 1.93228C53.0484 -2.81715 51.4224 26.3652 51.4224 26.3652C51.4224 26.3652 56.2868 -0.210653 62.5042 0.570916C72.2526 1.79636 53.0443 48.0878 53.0443 48.0878C53.0443 48.0878 83.7406 20.4484 92.1911 25.7572C100.642 31.0659 74.429 43.9949 74.429 43.9949C74.429 43.9949 97.6244 36.7014 100 42.5C103.725 51.5917 55.8184 53.6692 55.8184 53.6692C55.8184 53.6692 93.7439 74.7859 90.9852 84.3767C88.2265 93.9674 68.539 72.3652 68.539 72.3652C68.539 72.3652 81.9755 92.6304 77.0626 96.5201C69.3594 102.619 50.5 56.5 50.5 56.5C50.5 56.5 45.7197 98.5978 35.8055 99.7385C25.8913 100.879 38.2641 74.3995 38.2641 74.3995C38.2641 74.3995 24.7223 94.5946 19.2427 91.5546C10.6512 86.7883 45.5 53 45.5 53C45.5 53 4.34875 59.8642 0.504985 50.6545C-3.33878 41.4448 25.5327 45.9939 25.5327 45.9939C25.5327 45.9939 2.37557 38.5798 3.77771 32.4724C5.97617 22.8964 46.9903 48.5398 46.9903 48.5398C46.9903 48.5398 35.4943 6.68171 44.2713 1.93228Z" fill="white"/>
<path d="M66.9255 33.3752C67.0809 33.1385 67.2341 32.9001 67.3841 32.6609C68.5122 30.8624 69.533 28.9045 69.8328 27.2653C69.9833 26.4423 69.9804 25.5513 69.5627 24.7874C69.1181 23.9743 68.3214 23.5126 67.335 23.3464C66.2274 23.1599 65.1399 23.5428 64.1625 24.1536C63.178 24.7688 62.1978 25.6806 61.25 26.7472C59.3517 28.8834 57.4475 31.7971 55.7641 34.6948C54.0751 37.6022 52.5835 40.537 51.5155 42.7415C51.2728 43.2426 51.0517 43.7064 50.8549 44.1241C50.665 43.5729 50.4453 42.9443 50.1998 42.2567C49.2943 39.721 48.0342 36.3723 46.6208 33.1393C45.215 29.9237 43.629 26.7555 42.0615 24.6221C41.2875 23.5686 40.4462 22.6659 39.5529 22.1763C39.0931 21.9243 38.5756 21.7575 38.0226 21.7764C37.4555 21.7958 36.936 22.0078 36.4866 22.3729C35.8481 22.8916 35.5519 23.6339 35.4379 24.3749C35.3243 25.1135 35.3753 25.9422 35.513 26.782C35.7887 28.4644 36.4507 30.4101 37.1843 32.2202C37.2947 32.4925 37.4072 32.763 37.5209 33.0302C37.0504 32.5727 36.5636 32.1167 36.0709 31.6784C34.5165 30.2958 32.7928 28.9893 31.2792 28.4516C30.5198 28.1819 29.6511 28.0468 28.8483 28.3743C27.9964 28.7218 27.4788 29.478 27.2199 30.4227C26.9442 31.4287 27.0729 32.4992 27.4098 33.5371C27.7479 34.5787 28.3179 35.657 29.0174 36.726C30.4161 38.8633 32.4176 41.091 34.4338 43.0928C36.4568 45.1014 38.5277 46.9148 40.0899 48.2242C40.3944 48.4795 40.6799 48.7158 40.9423 48.931C40.4369 49.0176 39.8612 49.1193 39.2312 49.2357C36.8809 49.6697 33.7627 50.3094 30.7127 51.1302C27.6814 51.9458 24.6428 52.9595 22.4946 54.1619C21.4284 54.7586 20.4878 55.4524 19.8996 56.2693C19.2754 57.1364 19.0332 58.1799 19.4962 59.2709C19.8136 60.0185 20.4161 60.5007 21.0853 60.7978C21.7423 61.0895 22.5139 61.2281 23.3034 61.2805C24.8836 61.3852 26.7773 61.1574 28.5525 60.8297C28.9026 60.7651 29.2506 60.6961 29.5934 60.6242C28.9527 61.1016 28.3023 61.6103 27.6768 62.1365C26.1157 63.4498 24.6013 64.96 23.844 66.4297C23.4611 67.1727 23.2144 68.0148 23.3675 68.8673C23.5279 69.7612 24.0918 70.4758 24.9444 70.9966C25.8797 71.5679 26.987 71.6583 28.0894 71.5011C29.1938 71.3435 30.3874 70.9251 31.5975 70.3604C34.0195 69.23 36.6867 67.4271 39.1405 65.5578C41.6034 63.6815 43.8925 61.7062 45.5632 60.203C45.812 59.9792 46.0472 59.7657 46.2675 59.5643C46.2165 60.0106 46.1626 60.5009 46.1077 61.0277C45.8441 63.5573 45.556 66.9383 45.4618 70.3253C45.3681 73.6956 45.4637 77.1394 45.9938 79.7648C46.2574 81.07 46.6448 82.2621 47.2339 83.1499C47.8416 84.0659 48.7337 84.7447 49.9405 84.7365C50.828 84.7305 51.5041 84.2494 51.979 83.6472C52.4412 83.0611 52.7759 82.2903 53.0296 81.4731C53.5398 79.8298 53.8116 77.6987 53.9562 75.6406C53.9752 75.3708 53.992 75.101 54.0069 74.8326C54.2151 75.4624 54.438 76.0994 54.6749 76.7274C55.4822 78.8683 56.4906 81.0171 57.6863 82.4058C58.285 83.1011 59.0098 83.7 59.8709 83.9383C60.7911 84.1929 61.715 83.9947 62.5609 83.3807C63.4991 82.6997 63.9346 81.6176 64.0984 80.4744C64.2629 79.3262 64.176 77.9776 63.9408 76.5515C63.4693 73.6927 62.3598 70.2852 61.1137 67.0481C59.8632 63.7995 58.4555 60.6726 57.3625 58.3612C57.3181 58.2674 57.2743 58.1749 57.231 58.0838C57.3564 58.1701 57.4847 58.2582 57.6157 58.3477C59.7882 59.8334 62.7096 61.7575 65.6897 63.4986C68.6533 65.2299 71.7387 66.8185 74.223 67.5922C75.4504 67.9745 76.6479 68.1965 77.6518 68.0572C78.1686 67.9854 78.679 67.8118 79.1111 67.473C79.5529 67.1264 79.85 66.6558 80.0056 66.1024C80.2255 65.3201 80.0552 64.5599 79.7257 63.901C79.4002 63.2502 78.8907 62.6356 78.3098 62.0708C77.1468 60.9401 75.5299 59.85 73.9384 58.9126C73.771 58.814 73.6033 58.7167 73.4358 58.621C73.9764 58.6768 74.5243 58.7233 75.0682 58.7561C77.0413 58.8753 79.1154 58.8267 80.5948 58.2887C81.3448 58.0159 82.0774 57.5687 82.4959 56.8184C82.9319 56.0365 82.9127 55.1359 82.5809 54.2184C82.2088 53.1896 81.398 52.4175 80.4367 51.8346C79.4713 51.2493 78.2687 50.8016 76.9568 50.4529C74.3311 49.7551 71.0814 49.4065 67.9546 49.2447C64.8228 49.0826 61.7642 49.1058 59.4895 49.1692C59.7135 49.0245 59.9463 48.8735 60.1869 48.7165C62.499 47.2083 65.5435 45.1471 68.4567 42.9445C71.3564 40.752 74.1796 38.3797 76.0113 36.2488C76.9195 35.1922 77.6518 34.1184 77.9891 33.0967C78.3403 32.0327 78.2942 30.8782 77.402 29.9815C76.7766 29.3529 75.9416 29.2018 75.169 29.254C74.4006 29.3058 73.5631 29.5628 72.7297 29.9137C71.0551 30.6187 69.1456 31.8126 67.3755 33.056C67.2247 33.1619 67.0747 33.2683 66.9255 33.3752Z" fill="#FFD95B" stroke="#F7CD46" stroke-width="2"/>
</svg>
