<svg width="100" height="100" viewBox="0 0 100 100" fill="none" xmlns="http://www.w3.org/2000/svg">
<path d="M33.5582 93.004C39.0582 96.5397 51.0581 54.0039 51.0581 54.0039C51.0581 54.0039 44.1946 106.183 54.0581 95.004C61.5581 86.504 53.5581 54.5039 53.5581 54.5039C53.5581 54.5039 66.0581 98.5039 74.0581 92.5039C84.0581 85.0039 56.0581 54.0039 56.0581 54.0039C56.0581 54.0039 77.5581 77.5039 89.0581 77.0039C100.558 76.5039 58.5581 52.0039 58.5581 52.0039C58.5581 52.0039 93.0581 68.2302 94.5581 59.5039C96.0581 50.7777 59.5581 49.2361 59.5581 49.2361C59.5581 49.2361 96.0581 51.1413 96.0581 44.7152C96.0581 34.6218 59.5581 46.0039 59.5581 46.0039C59.5581 46.0039 94.5581 33.5039 89.0581 24.134C83.5581 14.764 58.5581 43.5039 58.5581 43.5039C58.5581 43.5039 83.5839 16.8989 77.5581 13.0039C66.4824 5.84468 56.0581 42.7083 56.0581 42.7083C56.0581 42.7083 66.5581 6.00381 58.0466 5.00381C49.5351 4.00381 52.0581 42.0038 52.0581 42.0038C52.0581 42.0038 48.4277 3.56894 44.0581 4.00366C31.112 5.29162 49.2838 42.7083 49.2838 42.7083C49.2838 42.7083 30.0581 8.00395 23.5581 14.0039C16.0581 20.9271 46.5581 44.5039 46.5581 44.5039C46.5581 44.5039 11.7302 21.997 9.05815 30.0039C7.05816 35.997 46.0582 46.5039 46.0582 46.5039C46.0582 46.5039 -6.62516 40.5166 4.55811 48.5039C11.1197 53.1904 46.5581 48.5039 46.5581 48.5039C46.5581 48.5039 5.05815 57.0039 8.05815 65.0039C10.3472 71.1081 47.5582 51.0039 47.5582 51.0039C47.5582 51.0039 9.05815 75.7182 17.5582 83.004C21.0582 86.004 49.0582 54.0039 49.0582 54.0039C49.0582 54.0039 26.5582 88.504 33.5582 93.004Z" fill="#F4AE16"/>
<path d="M53.6875 19.1318C53.6875 19.1318 46.5024 13.4112 44.8177 17.433C43.1329 21.4548 47.8787 46.0508 47.8787 46.0508C47.8787 46.0508 33.9326 23.2383 29.5523 22.2722C25.3294 21.3408 24.7937 29.0429 24.7937 29.0429C24.7937 29.0429 16.1955 32.2786 18.7911 35.7835C21.3867 39.2884 46.1385 48.3406 46.1385 48.3406C46.1385 48.3406 20.4135 45.8062 17.0042 48.7184C13.7174 51.5259 19.5515 56.59 19.5515 56.59C19.5515 56.59 16.9616 65.3959 21.3258 65.4357C25.6901 65.4755 47.4498 51.7894 47.4498 51.7894C47.4498 51.7894 28.4004 69.8754 28.3212 74.3557C28.2449 78.6749 35.9084 77.6717 35.9084 77.6717C35.9084 77.6717 40.7886 85.4482 43.7128 82.2118C46.6371 78.9754 50.255 53.4497 50.255 53.4497C50.255 53.4497 52.7197 79.5655 56.2808 82.2904C59.714 84.9173 63.4581 78.163 63.4581 78.163C63.4581 78.163 72.6197 78.8604 71.7502 74.5881C70.8807 70.3158 53.4264 52.6863 53.4264 52.6863C53.4264 52.6863 73.9406 66.8449 78.344 65.9897C82.5891 65.1652 80.0116 57.8865 80.0116 57.8865C80.0116 57.8865 86.6102 51.4997 82.8325 49.3163C80.3938 47.9068 63.5672 49.7045 55.7223 49.7467C63.4155 47.3314 80.8791 41.1815 82.3647 38.5376C84.4814 34.7705 77.2575 32.0253 77.2575 32.0253C77.2575 32.0253 76.6504 22.8672 72.5398 24.3324C68.4292 25.7976 52.3866 46.387 52.3866 46.387C52.3866 46.387 63.3584 24.0009 61.9462 19.7478C60.5847 15.6475 53.6875 19.1318 53.6875 19.1318Z" fill="white"/>
<path d="M50.4656 53.74L48.5266 53.7716L48.5264 53.7715L48.5264 53.7716L48.5263 53.772L48.5258 53.7742L48.5234 53.7843L48.5133 53.8266C48.5042 53.8644 48.4905 53.9212 48.4721 53.996C48.4354 54.1454 48.3804 54.3661 48.3076 54.6482C48.162 55.2126 47.9457 56.022 47.664 56.9978C47.0998 58.9515 46.2761 61.5613 45.2357 64.2005C44.1918 66.8484 42.9466 69.4823 41.5508 71.5083C40.1222 73.5818 38.6889 74.7939 37.3397 75.0129C37.012 75.0661 36.8407 75.0299 36.7649 75.0003C36.708 74.9781 36.6612 74.9449 36.6104 74.8541C36.4693 74.6024 36.375 74.0342 36.5077 73.0233C36.7645 71.0685 37.7491 68.267 39.0037 65.3251C40.2468 62.4102 41.7133 59.4516 42.8723 57.2164C43.4511 56.1001 43.9518 55.167 44.3074 54.5137C44.4851 54.187 44.6266 53.9304 44.7234 53.7559C44.7718 53.6687 44.809 53.602 44.8339 53.5573L44.8621 53.507L44.8691 53.4946L44.8707 53.4916L44.8711 53.491C44.8712 53.4909 44.8712 53.4909 43.9999 53L44.8712 53.4909L43.4675 52.154C43.4673 52.1537 43.4673 52.1537 43.4673 52.1537L43.4672 52.1537L43.4669 52.1539L43.4649 52.1552L43.4554 52.1611L43.4155 52.1859C43.3797 52.2082 43.3257 52.2415 43.2546 52.285C43.1123 52.372 42.9017 52.4993 42.6317 52.6587C42.0915 52.9777 41.3145 53.4246 40.3717 53.9335C38.4822 54.9534 35.9452 56.2123 33.3249 57.1908C30.6816 58.1778 28.0562 58.8395 25.9562 58.7538C24.9173 58.7114 24.0667 58.488 23.4127 58.0845C22.7763 57.6921 22.2648 57.0926 21.9445 56.1717C21.793 55.736 21.8511 55.3411 22.1539 54.8945C22.4862 54.4043 23.1052 53.8778 24.0283 53.3439C25.8666 52.2808 28.5745 51.3764 31.4389 50.6441C34.2836 49.9169 37.2035 49.3788 39.4182 49.0221C40.524 48.8439 41.4507 48.7116 42.1 48.6239C42.4246 48.58 42.6797 48.5474 42.853 48.5257C42.9397 48.5149 43.0059 48.5069 43.05 48.5015L43.0996 48.4956L43.1117 48.4942L43.1145 48.4939L43.115 48.4938L42.9999 47.5005L43.1151 48.4938L46.2419 48.1314L43.4792 46.6228L43.4787 46.6226L43.4764 46.6213L43.4662 46.6157L43.424 46.5925C43.3864 46.5717 43.3301 46.5405 43.2564 46.4994C43.1089 46.417 42.8918 46.2949 42.6161 46.1372C42.0645 45.8216 41.2784 45.3636 40.3444 44.7959C38.4739 43.6591 36.0207 42.089 33.6707 40.347C31.3079 38.5955 29.1051 36.7106 27.6928 34.9497C26.9859 34.0683 26.5205 33.2708 26.308 32.5822C26.1018 31.9138 26.1467 31.4026 26.3775 30.9801C26.5681 30.6314 26.8518 30.4492 27.3937 30.4343C28.0032 30.4176 28.8551 30.6297 29.9332 31.106C32.0709 32.0506 34.7053 33.8529 37.3089 35.8883C39.8968 37.9116 42.3942 40.1171 44.2483 41.8209C45.1743 42.6718 45.9376 43.3955 46.4688 43.9059C46.7344 44.1611 46.9418 44.3628 47.0825 44.5004C47.1528 44.5692 47.2065 44.6219 47.2423 44.6572L47.2826 44.6969L47.2924 44.7067L47.2947 44.709L47.2952 44.7095L47.9999 44L47.2953 44.7096L49.2277 46.6285L48.9963 43.9151L48.9963 43.915L48.9963 43.9145L48.9961 43.9119L48.9951 43.9002L48.9911 43.8516C48.9876 43.8083 48.9825 43.7433 48.9761 43.6581C48.9633 43.4876 48.9452 43.2364 48.9248 42.9161C48.8838 42.2755 48.8332 41.3594 48.7945 40.2619C48.717 38.0637 48.6882 35.1527 48.8794 32.2755C49.0719 29.3772 49.4828 26.6011 50.244 24.6264C50.6247 23.6389 51.0626 22.9335 51.5324 22.5041C51.9703 22.1038 52.4429 21.9315 53.0269 21.9948C53.6078 22.0577 54.0501 22.3325 54.418 22.8409C54.8088 23.3811 55.1127 24.1884 55.3076 25.2573C55.6972 27.3947 55.5961 30.2512 55.2596 33.1771C54.9254 36.083 54.3694 38.9746 53.895 41.1458C53.6581 42.2298 53.4423 43.1306 53.286 43.7594C53.2079 44.0738 53.1447 44.32 53.1012 44.4869C53.0795 44.5703 53.0627 44.6339 53.0514 44.6763L53.0387 44.7237L53.0356 44.7352L53.0349 44.7378L53.0348 44.7383L52.0419 48.4L54.7107 45.7034L53.9999 45L54.7107 45.7034L54.7112 45.7029L54.7133 45.7008L54.7226 45.6914L54.7607 45.6532C54.7946 45.6192 54.8455 45.5684 54.9123 45.5021C55.0458 45.3694 55.2429 45.1749 55.4955 44.9289C56.0007 44.437 56.7273 43.7399 57.6102 42.922C59.3782 41.2841 61.7631 39.171 64.247 37.252C66.7479 35.3198 69.2816 33.6379 71.3566 32.806C72.3999 32.3877 73.2283 32.2257 73.8318 32.2805C74.3711 32.3295 74.7239 32.5435 74.9754 32.9907C75.2347 33.4516 75.2633 33.9777 74.9913 34.6591C74.7065 35.3727 74.1101 36.1936 73.2122 37.0936C71.422 38.8881 68.6707 40.7653 65.7386 42.4875C62.8217 44.2007 59.7887 45.7244 57.4799 46.8217C56.3268 47.3697 55.3571 47.81 54.6766 48.113C54.3364 48.2644 54.0686 48.3814 53.8864 48.4604C53.7953 48.4998 53.7257 48.5298 53.6791 48.5497L53.6268 48.572L53.614 48.5775L53.611 48.5787L53.6104 48.579L53.9999 49.5L53.6103 48.579L54.0585 50.4978L54.0586 50.4983L54.0587 50.4983L54.0591 50.4983L54.0618 50.4981L54.0741 50.4974L54.1255 50.4946C54.1716 50.4922 54.2409 50.4887 54.3318 50.4845C54.5138 50.4762 54.7822 50.4652 55.1246 50.4546C55.8095 50.4334 56.789 50.4141 57.9621 50.4219C60.3126 50.4373 63.421 50.5612 66.4863 50.9903C69.5732 51.4225 72.5182 52.1517 74.6034 53.3247C76.6592 54.4811 77.7005 55.9441 77.5049 57.9005C77.4254 58.6957 77.1255 59.1069 76.7445 59.353C76.3125 59.632 75.6293 59.7919 74.6461 59.7575C72.676 59.6885 70.0144 58.8631 67.2559 57.721C64.5265 56.591 61.8119 55.1983 59.7726 54.0832C58.7548 53.5267 57.9091 53.0414 57.3187 52.6958C57.0235 52.5231 56.7924 52.3853 56.6357 52.2911C56.5573 52.244 56.4976 52.2079 56.4577 52.1836L56.4131 52.1564L56.4023 52.1498L56.3998 52.1483L56.3993 52.148L55.0368 53.5443L55.0372 53.5448L55.0387 53.5472L55.0455 53.5576L55.0733 53.6008C55.098 53.6393 55.135 53.697 55.1832 53.7729C55.2796 53.9246 55.4208 54.1486 55.5987 54.4353C55.9545 55.009 56.4566 55.8332 57.0392 56.832C58.206 58.8323 59.6887 61.5209 60.9672 64.2937C62.2538 67.0841 63.2988 69.8868 63.6403 72.1346C63.8113 73.26 63.7923 74.1639 63.5995 74.8292C63.4176 75.457 63.0904 75.8569 62.5809 76.092C62.0997 76.3141 61.6076 76.2946 61.0157 75.9862C60.3846 75.6574 59.6828 75.0143 58.9372 74.0573C57.4512 72.1499 56.0079 69.2816 54.735 66.2391C53.4694 63.2141 52.4014 60.0884 51.6485 57.7135C51.2725 56.5274 50.9761 55.5316 50.774 54.8333C50.6729 54.4842 50.5955 54.2096 50.5434 54.0228C50.5174 53.9295 50.4978 53.8581 50.4847 53.8104L50.4701 53.7568L50.4666 53.7438L50.4657 53.7407L50.4656 53.7401L49.4999 54L50.4656 53.74Z" stroke="#FFD95B" stroke-width="2"/>
</svg>
