<svg width="13" height="14" viewBox="0 0 13 14" fill="none" xmlns="http://www.w3.org/2000/svg">
<path d="M9.16877 6.30418C9.06311 6.58071 8.94101 6.85189 8.80483 7.11743C7.79282 9.08496 6.00596 10.637 4.00308 11.8311C2.99459 9.54818 1.97202 7.16214 1.99433 4.67568C1.99903 4.12849 2.04012 3.56633 2.18217 3.03232C2.2444 2.80051 2.32658 2.56555 2.45807 2.35687C2.61421 2.10882 2.69757 2.07207 3.01808 2.12463C4.35999 2.34399 4.64761 3.69689 4.57835 4.71097C4.48325 6.09791 4.10757 7.47374 3.55343 8.76916C3.49355 8.90989 3.90798 8.76875 3.92441 8.76236C4.11226 8.69105 4.39638 8.56792 4.50087 8.40165C5.27807 7.17345 6.28656 5.9954 7.5322 5.11336C7.85153 4.88656 8.19786 4.716 8.62286 4.7718C8.96332 4.81662 9.31788 5.00048 9.39302 5.32057C9.46581 5.63375 9.28031 6.01289 9.16877 6.30418ZM10.2735 4.6204C9.94364 4.14713 9.17817 4.16189 8.65573 4.29696C7.97244 4.47381 7.34553 4.83683 6.8043 5.24204C6.19146 5.70065 5.62557 6.20827 5.11018 6.7541C5.36846 5.88336 5.53635 4.98844 5.56688 4.0976C5.60562 3.01096 5.14188 1.60749 3.67435 1.55534C2.42167 1.51074 1.44371 2.49477 1.19012 3.50434C0.848483 4.86342 1.01167 6.34386 1.32983 7.69279C1.71021 9.30055 2.37119 10.8416 3.04508 12.3669C3.00047 12.3901 2.95703 12.4135 2.91359 12.4363C2.83375 12.4773 2.42519 12.684 2.50268 12.8038C2.57782 12.921 3.00634 12.701 3.06504 12.6705C3.1437 12.6295 3.22235 12.5871 3.30218 12.5452C3.55695 12.4894 3.98899 12.2795 4.07939 12.1165C6.04235 10.99 7.85505 9.59121 9.09951 7.82398C9.44703 7.33082 9.74874 6.80917 9.98824 6.26753C10.1867 5.82002 10.5976 5.08362 10.2735 4.6204Z" fill="#3D3220" stroke="#3D3220" stroke-width="0.5"/>
<path d="M9.50184 0.122431C9.29058 0.224189 8.95938 0.39183 8.86943 0.630537C8.72359 1.01424 8.60365 1.40491 8.50825 1.8043C8.45918 2.00945 8.96211 1.78765 9.01118 1.76406C9.19654 1.67498 9.58907 1.48756 9.64495 1.25595C9.73899 0.856694 9.85892 0.466031 10.0048 0.0823255C10.0797 -0.114779 9.53727 0.10579 9.50184 0.122431Z" fill="#3D3220"/>
<path d="M12.5466 0.965842C12.5112 0.903232 12.3599 0.942514 12.319 0.953427C12.0492 1.0279 11.7084 1.19814 11.5203 1.41502C11.4236 1.5281 11.3214 1.63831 11.2164 1.74471C11.1701 1.79177 11.1224 1.83828 11.0747 1.88411C11.0447 1.91248 11.0133 1.94031 10.9834 1.96841C10.9765 1.97469 10.967 1.98301 10.9534 1.99487C10.8839 2.05517 10.5881 2.3468 10.8702 2.32061C11.1455 2.29524 11.4713 2.10604 11.6743 1.92885C11.9483 1.69165 12.2072 1.44285 12.4444 1.16936C12.4717 1.13716 12.5848 1.03022 12.5466 0.965842Z" fill="#3D3220"/>
</svg>
