<svg width="17" height="17" viewBox="0 0 17 17" fill="none" xmlns="http://www.w3.org/2000/svg">
<path d="M9.93578 9.01158C9.93578 9.01158 16.8277 10.9793 16.8277 8.55212C16.8277 6.12493 9.74941 8.21643 9.93578 8.09266C11.6037 6.985 15.8593 4.3434 14.3628 3.11107C11.6062 1.5027 9.19404 7.41884 9.19404 7.41884C9.19404 7.41884 11.6062 0.699251 8.79982 0.412347C5.92039 0.641818 8.10274 7.41884 8.10274 7.41884C8.10274 7.41884 5.00142 1.50296 2.70418 2.76682C0.579127 5.23607 7.35615 8.27999 7.35615 8.27999C7.35615 8.27999 0.166723 6.49899 0.40683 9.19891C0.636616 11.7828 6.89666 8.91217 6.89666 8.91217C6.89666 8.91217 1.09602 13.1043 2.93388 15.057C4.69366 16.9267 8.10274 9.88852 8.10274 9.88852C8.10274 9.88852 6.03514 16.3781 8.79984 16.723C11.2041 16.2058 9.71085 9.88853 9.71085 9.88853C9.71085 9.88853 12.123 16.0335 14.3628 14.713C16.8324 12.3578 9.93578 9.01158 9.93578 9.01158Z" fill="#EECF52"/>
<path d="M7.87971 8.127C7.87971 8.127 6.87326 5.70541 8.09477 5.41227C9.31628 5.11913 8.4066 8.32455 8.38294 8.1971C8.35928 8.06965 8.95714 5.7925 10.4733 6.18973C11.9894 6.58695 8.69477 8.39465 8.69477 8.39465C8.69477 8.39465 10.1765 7.34742 11.2754 8.09514C12.3743 8.84286 8.8238 8.74727 8.8238 8.74727C8.8238 8.74727 10.8754 8.5922 11.0195 9.84336C11.1636 11.0945 8.74208 8.9257 8.74208 8.9257C8.74208 8.9257 10.5378 10.9841 9.38724 11.53C8.2367 12.0759 8.33778 9.05741 8.33778 9.05741C8.33778 9.05741 8.51197 11.3048 7.33993 11.1497C6.16788 10.9947 8.0238 9.05741 8.0238 9.05741C8.0238 9.05741 6.12702 10.6251 5.93347 9.55234C5.73992 8.47962 7.65391 8.794 7.65391 8.794C7.65391 8.794 4.88616 8.13975 5.6453 7.03728C6.40444 5.93482 7.87971 8.127 7.87971 8.127Z" fill="#EDA710"/>
</svg>
