<svg width="31" height="33" viewBox="0 0 31 33" fill="none" xmlns="http://www.w3.org/2000/svg">
<path d="M1.08264 17.3607C1.3253 16.9946 1.6379 16.6725 2.00938 16.4156L12.0332 9.48437C13.231 8.65609 14.8166 8.65609 16.0144 9.48437L26.0382 16.4156C26.4097 16.6725 26.7223 16.9946 26.965 17.3607L20.6349 20.521L15.5871 23.041C14.6028 23.5324 13.4448 23.5324 12.4605 23.041L7.41276 20.521L1.08264 17.3607ZM21.6949 21.1095L27.3928 18.2648C27.4942 18.5943 27.5476 18.9409 27.5476 19.2944V27.1033L21.6949 21.1095ZM20.7552 21.5786L27.5476 28.5346V29C27.5476 30.933 25.9806 32.5 24.0476 32.5H4C2.067 32.5 0.5 30.933 0.5 29V28.5346L7.29237 21.5786L12.0138 23.9357C13.2793 24.5675 14.7683 24.5675 16.0338 23.9357L20.7552 21.5786ZM6.35275 21.1095L0.5 27.1033V19.2944C0.5 18.9409 0.553375 18.5943 0.654813 18.2648L6.35275 21.1095Z" fill="white" fill-opacity="0.4" stroke="white"/>
<path d="M15.8375 8.19595L17.0274 15.296C17.3359 17.1372 19.1977 18.2704 20.9362 17.6752L27.6896 15.3628C29.9546 14.7662 31.3195 12.4249 30.7495 10.1139C30.1636 7.80312 27.8506 6.40452 25.5782 6.98685L24.3769 7.29653L24.0687 6.07409C23.4828 3.76331 21.1699 2.3647 18.8974 2.94703C16.6323 3.54371 15.2675 5.88494 15.8375 8.19595Z" fill="white"/>
<path d="M3.12615 9.65108L6.58599 10.0408C8.40601 10.2458 9.97713 8.75263 9.89321 6.89758L9.7321 3.33588C9.77121 1.77276 8.56187 0.471886 7.02082 0.419384C5.47703 0.377149 4.18789 1.60955 4.13851 3.17484L4.11354 4.00263L3.29718 3.97913C1.75339 3.93689 0.46425 5.16929 0.414868 6.73458C0.375753 8.2977 1.58509 9.59858 3.12615 9.65108Z" fill="white"/>
</svg>
