<svg width="24" height="24" viewBox="0 0 24 24" fill="none" xmlns="http://www.w3.org/2000/svg">
<path fill-rule="evenodd" clip-rule="evenodd" d="M7.86965 2.12854C6.24177 2.20199 4.8308 2.60001 3.69148 3.73452C2.54818 4.87499 2.15514 6.29139 2.08151 7.90234C2.03574 8.90782 1.76808 16.504 2.54421 18.4961C3.0676 19.8401 4.09846 20.8733 5.4547 21.3984C6.08754 21.6446 6.80994 21.8113 7.86966 21.86C16.7305 22.261 20.0151 22.0426 21.4002 18.4961C21.6459 17.8649 21.8151 17.1433 21.8619 16.0862C22.2668 7.20263 21.7962 5.27707 20.2519 3.73457C19.027 2.51271 17.5862 1.68094 7.86959 2.12859M7.95303 20.0733C6.98287 20.0296 6.45649 19.8678 6.10524 19.7319C5.22165 19.3884 4.55796 18.7274 4.21666 17.849C3.62561 16.3353 3.82163 9.14607 3.87437 7.98277C3.92611 6.84329 4.15696 5.80208 4.96095 4.9981C5.95599 4.00552 7.24158 3.51916 15.9949 3.91421C17.1372 3.96582 18.181 4.1961 18.987 4.9981C19.9821 5.99067 20.4756 7.28598 20.0736 16.0058C20.0298 16.9736 19.8676 17.4986 19.7313 17.849C18.8308 20.1567 16.7591 20.4773 7.95301 20.0734M16.0896 6.69544C16.0896 7.35253 16.6239 7.88653 17.2836 7.88653C17.9433 7.88653 18.4787 7.35253 18.4787 6.69544C18.4787 6.03836 17.9433 5.50435 17.2836 5.50435C16.6239 5.50435 16.0896 6.03836 16.0896 6.69544M6.86259 11.9938C6.86259 14.8087 9.15018 17.0907 11.9721 17.0907C14.794 17.0907 17.0816 14.8087 17.0816 11.9938C17.0816 9.17886 14.794 6.89793 11.9721 6.89793C9.15018 6.89793 6.86259 9.17886 6.86259 11.9938M8.65565 11.9938C8.65565 10.1675 10.1403 8.68555 11.9721 8.68555C13.804 8.68555 15.2886 10.1675 15.2886 11.9938C15.2886 13.8211 13.804 15.303 11.9721 15.303C10.1403 15.303 8.65565 13.8211 8.65565 11.9938" fill="white"/>
</svg>
